<?xml version="1.0" encoding="utf-8"?>
<!-- Generator: Adobe Illustrator 23.0.1, SVG Export Plug-In . SVG Version: 6.00 Build 0)  -->
<svg version="1.1" id="Layer_1" xmlns="http://www.w3.org/2000/svg" xmlns:xlink="http://www.w3.org/1999/xlink" x="0px" y="0px"
	 viewBox="0 0 113.2 50.5" style="enable-background:new 0 0 113.2 50.5;" xml:space="preserve">
<style type="text/css">
	.st0{fill:#FFCF01;}
	.st1{fill:#FFFFFF;}
</style>
<g>
	<path class="st0" d="M24.8,9.1c0-0.4-0.3-0.7-0.7-0.7h-6.2c-0.4,0-0.7,0.3-0.7,0.7v7.4c0,0.4-0.3,0.7-0.7,0.7h-3.9
		c-0.4,0-1,0-1.4,0H9c-0.4,0-0.7,0.3-0.7,0.7v6.3c0,0.4,0.3,0.7,0.7,0.7h3.9c0.4,0,0.7-0.3,0.7-0.7v-6c0-0.4,0.2-0.5,0.5-0.2
		l4.2,4.2c0.3,0.3,0.7,0.3,1,0l2.8-2.8c0.3-0.3,0.3-0.7,0-1l-4.2-4.3c-0.3-0.3-0.2-0.5,0.2-0.5h6c0.4,0,0.7-0.3,0.7-0.7V9.1z"/>
	<g>
		<g>
			<path class="st1" d="M108.8,44.8c0,0.3,0.1,0.4,0.4,0.4h3.6c0.2,0,0.3,0.2,0.3,0.4V50c0,0.3-0.1,0.4-0.4,0.4h-5.4
				c-1.1,0-2-0.3-2.7-1s-1.1-1.4-1.1-2.3V33.7c0-0.3-0.1-0.4-0.4-0.4h-2.3c-0.3,0-0.4-0.1-0.4-0.4v-4.4c0-0.3,0.1-0.4,0.4-0.4h2.3
				c0.3,0,0.4-0.1,0.4-0.4v-5.4c0-0.3,0.1-0.4,0.4-0.4h4.4c0.3,0,0.4,0.1,0.4,0.4v5.4c0,0.3,0.1,0.4,0.4,0.4h3.5
				c0.3,0,0.4,0.1,0.4,0.4v4.4c0,0.3-0.1,0.4-0.4,0.4h-3.5c-0.3,0-0.4,0.1-0.4,0.4L108.8,44.8L108.8,44.8z"/>
			<path class="st1" d="M97.5,45.2c0.3,0,0.4,0.1,0.4,0.4V50c0,0.3-0.1,0.4-0.4,0.4h-8.1c-1.6,0-3-0.3-4.2-0.8
				c-1.2-0.6-2.3-1.3-3.1-2.2c-0.9-0.9-1.5-1.9-2-3s-0.7-2.2-0.7-3.3v-3.6c0-1.5,0.2-2.8,0.6-3.9c0.4-1.2,1.1-2.2,1.9-3
				c0.9-0.8,2-1.4,3.4-1.9c1.4-0.4,3-0.7,4.9-0.7h7.3c0.3,0,0.4,0.1,0.4,0.4v4.4c0,0.3-0.1,0.4-0.4,0.4h-8.1c-1.7,0-2.9,0.5-3.7,1.5
				c-0.8,1-1.2,2.2-1.2,3.7v1.9c0,1.4,0.4,2.6,1.2,3.5c0.8,0.9,2,1.4,3.8,1.4C89.5,45.2,97.5,45.2,97.5,45.2z"/>
			<path class="st1" d="M71.3,44.8c0,0.3-0.1,0.4-0.4,0.4h-5.7c-1.7,0-3-0.5-3.8-1.4s-1.2-2.1-1.2-3.5v-1.9c0-1.5,0.4-2.7,1.2-3.7
				s2.1-1.5,3.7-1.5h5.7c0.3,0,0.4,0.1,0.4,0.4L71.3,44.8L71.3,44.8z M76.2,28H66.1c-1.9,0-3.5,0.2-4.9,0.7
				c-1.4,0.4-2.5,1.1-3.4,1.9s-1.5,1.8-1.9,3c-0.4,1.2-0.6,2.5-0.6,3.9v3.6c0,1.1,0.2,2.2,0.7,3.3s1.1,2.1,2,3s1.9,1.6,3.1,2.2
				c1.2,0.6,2.6,0.8,4.2,0.8h10.9c0.2,0,0.4-0.2,0.4-0.4V28.5C76.6,28.2,76.4,28,76.2,28"/>
			<path class="st1" d="M48.1,44.8c0,0.2,0.2,0.4,0.4,0.4h3.6c0.2,0,0.3,0.2,0.3,0.4V50c0,0.2-0.2,0.4-0.4,0.4h-5.4
				c-1.1,0-2-0.3-2.7-1s-1.1-1.4-1.1-2.3V33.7c0-0.2-0.2-0.4-0.4-0.4h-2.3c-0.3,0-0.4-0.1-0.4-0.4v-4.4c0-0.2,0.2-0.4,0.4-0.4h2.3
				c0.2,0,0.4-0.2,0.4-0.4v-5.4c0-0.2,0.2-0.4,0.4-0.4h4.4c0.2,0,0.4,0.2,0.4,0.4v5.2c0,0.3,0.3,0.6,0.6,0.6H52
				c0.2,0,0.4,0.2,0.4,0.4v4.4c0,0.2-0.2,0.4-0.4,0.4h-3.6c-0.2,0-0.4,0.2-0.4,0.4L48.1,44.8L48.1,44.8z"/>
			<g>
				<path class="st1" d="M37.3,35.4V50c0,0.3-0.2,0.4-0.5,0.4h-4.2c-0.3,0-0.6-0.2-0.6-0.6V36.4c0-0.7-0.1-1.3-0.3-1.8
					c-0.2-0.5-0.5-0.8-0.9-1.1S30,33.1,29.4,33c-0.5-0.1-1.1-0.2-1.7-0.2h-4.2c-0.3,0-0.6,0.1-0.9,0.3s-0.4,0.5-0.4,0.7V50
					c0,0.3-0.2,0.4-0.5,0.4h-4.3c-0.3,0-0.5-0.2-0.5-0.5v-8.6l0,0V30.9c0-0.7,0.3-1.4,0.9-2s1.3-0.9,2.3-0.9h9.7c1,0,2,0.2,2.9,0.6
					s1.7,1,2.3,1.7c0.7,0.7,1.2,1.5,1.6,2.4C37.1,33.6,37.3,34.5,37.3,35.4"/>
			</g>
			<path class="st1" d="M8.2,28.5c0-0.3,0.1-0.4,0.4-0.4H13c0.3,0,0.4,0.1,0.4,0.4V50c0,0.3-0.1,0.4-0.4,0.4H8.6
				c-0.3,0-0.4-0.1-0.4-0.4C8.2,50,8.2,28.5,8.2,28.5z"/>
		</g>
		<path class="st1" d="M12.2,7.7c0.4,0,1,0,1.4,0h2.2c0.4,0,0.7-0.3,0.7-0.7V0.7c0-0.4-0.3-0.7-0.7-0.7h-3.9c-0.4,0-0.7,0.3-0.7,0.7
			v6c0,0.4-0.2,0.5-0.5,0.2L6.5,2.7c-0.3-0.3-0.7-0.3-1,0L2.7,5.4c-0.3,0.3-0.3,0.7,0,1l4.2,4.3c0.3,0.3,0.2,0.5-0.2,0.5h-6
			c-0.4,0-0.7,0.3-0.7,0.7v3.9c0,0.4,0.3,0.7,0.7,0.7h6.2c0.4,0,0.7-0.3,0.7-0.7V8.4c0-0.4,0.3-0.7,0.7-0.7L12.2,7.7z"/>
	</g>
</g>
</svg>
