<?xml version="1.0"?>
<svg xmlns:rdf="http://www.w3.org/1999/02/22-rdf-syntax-ns#" xmlns="http://www.w3.org/2000/svg" xmlns:cc="http://web.resource.org/cc/" xmlns:xlink="http://www.w3.org/1999/xlink" xmlns:dc="http://purl.org/dc/elements/1.1/" xmlns:svg="http://www.w3.org/2000/svg" id="Layer_1" style="enable-background:new 0 0 490.996 335.537" xml:space="preserve" viewBox="0 0 490.996 335.537" version="1.1" y="0px" x="0px">
<g clip-rule="evenodd" fill-rule="evenodd">
	<path d="m408.94 51.118c-1.149 4.312-5.071-0.326-9.585 1.064 0.89-2.659 5.99-2.593 9.58-1.064z"/>
	<path d="m417.46 53.248c0.832 2.281 2.585 5.948 1.062 7.454-3.048 0.208-5.811 0.132-5.324-3.195-1.687 1.561-8.456 2.198-7.453-2.13 3.73-1.18 6.26 0.125 11.71-2.129z"/>
	<path d="m368.47 61.767c3.01-0.88 2.759 1.502 5.324 1.065v4.259c-1.36 1.457-5.028 1.457-6.389 0-0.34-2.469 0.17-4.089 1.07-5.324z"/>
	<path d="m390.83 64.962c-2.241 5.974-9.841 0.044-14.909 3.195-4.408-5.763 6.541-8.466 7.455-4.261 2.34-3.08 5.66-1.759 7.45 1.066z"/>
	<path d="m392.96 61.767c4.455 2.831 8.947-0.992 8.519 6.39-5.399-0.058-6.588-1.958-9.585-2.131-0.46-2.226 0.72-2.82 1.06-4.259z"/>
	<path d="m403.61 62.832c2.899 0.652 4.175 2.926 4.262 6.389-4.68 1.116-5.58-4.757-4.26-6.389z"/>
	<path d="m425.97 66.026c1.887-0.952 1.356-4.321 5.324-3.194 1.457 1.361 1.457 5.029 0 6.389-5.227-0.816-4.057-2.486-8.52 0-0.457-2.028-2.295-2.674-2.13-5.325 2.19-2.281 5.08-0.554 5.33 2.13z"/>
	<path d="m433.43 62.832c3.168 1.846 5.403-0.345 7.455 1.064 0.976 4.528-2.553 4.549-6.391 4.261 0.44-2.567-1.94-2.317-1.06-5.325z"/>
	<path d="m300.31 77.742c-3.17 3.928-8.537 0.273-13.844 1.064 2.57-4.404 9.72-3.401 13.84-1.064z"/>
	<path d="m314.16 78.806c-5.204-0.277-10.393 2.576-12.779-2.13 4.14-0.635 11.54-3.257 12.78 2.13z"/>
	<path d="m298.18 83.065c-4.863 5.076-13.232-1.871-20.232 1.066 2.61-5.896 15.49-2.669 20.23-1.066z"/>
	<path d="m361.01 84.131c0.034 4.666 5.203 8.389 3.196 11.714-5.43 0.726-5.07-8.524-3.2-11.714z"/>
	<path d="m378.05 84.131h3.196c-3.106 4.138 1.508 8.48 0 10.648-3.94-0.675-3.25-5.98-3.2-10.648z"/>
	<path d="m391.89 84.131c3.129 1.487 2.104 7.127 4.262 9.583-5.98 1.367-3.92-5.308-4.26-9.583z"/>
	<path d="m398.28 84.131c3.978 0.096 3.034 1.192 6.389 0 1.785 1.765 0.848 6.251 1.066 9.583-3.592 1.161-4.903-8.597-5.325-1.065-2.47-1.087-2.21-4.897-2.14-8.518z"/>
	<path d="m411.06 84.131h4.262c-0.57 4.118 1.898 5.199 1.063 9.583-1.36 1.458-5.029 1.458-6.39 0 6.52-1.827 2.46-4.892 1.07-9.583z"/>
	<path d="m283.27 87.324c3.362-0.521 3.762 1.92 7.455 1.066-3.847 2.579-3.312 1.791-3.193 6.389-1.912 0.136-2.248-1.302-4.262-1.064 1.2-3.355 0.1-2.411 0-6.391z"/>
	<path d="m292.86 88.39c6.012 1.091 6.158 0.008 13.843 0-0.63 6.254-13.39 3.685-13.84 0z"/>
	<path d="m362.08 96.909c4.142 0.474 7.212 2.018 6.39 7.455-2.272 0.498-2.029-1.521-2.131-3.193-2.268 1.634-3.077 4.729-4.259 7.453-2.06-1.77-1.36-9.817 0-11.711z"/>
	<path d="m451.53 97.975c3.664 3.005 3.208 7.99 3.195 10.648-4.69 0.3-5.25-7.54-3.19-10.645z"/>
	<path d="m458.98 97.975c3.307 1.033 5.97 8.938 2.131 10.648-0.58-3.52-4.6-7.39-2.13-10.645z"/>
	<path d="m465.38 97.975c2.936 1.328 7.941 9.114 1.066 10.648 0.27-3.77-3.01-6.56-1.07-10.645z"/>
	<path d="m471.77 97.975h4.259c-1.191 1.534-1.148 2.599 1.064 3.195-0.9 1.581-3.429 1.54-5.323 2.129v-5.325z"/>
	<path d="m401.48 100.1c2.781 0.53 5.384 7.875 0 7.455v-7.46z"/>
	<path d="m411.06 109.69h6.392c-0.438 2.566 1.944 2.314 1.062 5.326h-6.388c0.89-3.02-1.49-2.77-1.06-5.33z"/>
	<path d="m468.57 113.95c-0.548 3.711-6.957 1.562-10.649 2.13 0.55-3.71 6.96-1.56 10.65-2.13z"/>
	<path d="m472.83 117.14c-9.145 2.662-23.788 5.193-33.012 4.259 8.56-3.84 19.86-3.08 33.01-4.26z"/>
	<path d="m418.52 121.4c-3.521 3.283-2.615 4.425-9.583 4.259-1.074-3.203 2.371-1.887 4.259-2.129-0.132-2.353-4.517-0.453-6.39-1.064 1.23-5.36 7.23 0.67 11.71-1.07z"/>
	<path d="m472.83 120.34c-8.438 3.633-19.453 4.686-30.883 5.324 9.7-4.71 20.23-2.59 30.88-5.32z"/>
	<path d="m303.51 132.05c-2.561-0.768-6.438-3.021-8.521-1.066 0.242 1.534 3.18 0.372 3.195 2.13 1.054 25.002-2.659 52.382 0 76.675-5.179-12.303-3.363-27.06-4.259-41.532-0.677-10.951-2.163-22.778 0-35.143-1.473-1.723-3.769-2.622-3.195-6.39 4.02 3.2 11.19-5.14 12.79 5.33z"/>
	<path d="m289.66 133.12c-2.887-1.017-7.342-0.467-6.391-5.325 3.63-2.51 8.25 2.67 6.39 5.32z"/>
	<path d="m449.4 126.73c-5.153 4.075-15.059 3.4-22.363 5.326 3.55-7.1 13.56-2.55 22.36-5.33z"/>
	<path d="m417.46 127.79c0.189 4.805-7.781 1.449-7.456 6.39-3.797-2.151-8.14 1.186-10.649-1.065 3.58-4.24 11.28-4.34 18.11-5.33z"/>
	<path d="m419.58 137.38c0.834-5.555 11.001-1.777 13.844-5.323 6.483 0.803 9.023-2.338 14.91-2.131-6.58 5.47-20.4 3.72-28.75 7.45z"/>
	<path d="m334.39 133.12c0.756 4.683-3.587 13.436-5.326 19.168-1.52-5.45 2.94-14.09 5.33-19.17z"/>
	<path d="m318.42 134.18c1.812-0.392 2.009 0.831 2.129 2.13-5.095 15.848-8.723 33.165-12.779 50.053-0.14-16.82 7.39-35.2 10.65-52.18z"/>
	<path d="m55.377 141.64h3.194c-2.595 27.581 2.162 56.663 8.52 78.806-6.152-3.613-5.215-12.725-6.39-19.169-3.323-18.244-5.761-35.615-5.324-56.441-1.896-0.79-0.154-1.94 0-3.2z"/>
	<path d="m36.208 148.03c0.948 0.472 1.904 0.936 2.129 2.13-0.657 10.038 2.852 21.005 3.194 30.883 0.135 3.868 1.797 9.989-2.129 12.778 0.408-16.08-2.996-33.85-3.194-45.79z"/>
	<path d="m29.818 151.22h3.194c1.208 20.89 2.928 40.002 9.584 55.376 1.993 4.6 7.022 8.797 5.325 13.845-8.565-7.513-9.042-24.858-14.91-36.209 0.655-9.93-1.535-22.28-3.193-33.01z"/>
	<path d="m200.21 204.47c-1.629 1.356 2.36 6.098 4.26 7.455-5.006 7.402 6.34 11.393 5.325 21.298-9.078-8.315-9.876-24.912-17.039-35.143 0.472-0.948 0.936-1.905 2.13-2.131-6.518-9.55-7.364-18.473-10.649-28.752h2.129c-0.834-6.284-10.693-11.204-6.39-15.975 6.066 2.81 6.208 11.542 10.649 15.975-0.465 1.31-1.362 2.186-3.194 2.13 7.002 10.39 9.164 25.623 14.908 37.271-0.96-0.48-1.92-0.94-2.14-2.13z"/>
	<path d="m166.13 198.08c3.829 17.117 17.047 34.068 23.428 52.181-12.396-9.611-15.729-28.287-25.558-40.467 1.046-3.266 2.841 1.224 4.26 1.064-2.363-9.255-11.074-16.967-9.584-26.624-3.932-8.491-8.683-16.165-9.585-27.688 6.396 3.189 3.15 16.019 10.65 18.104 0.534 6.922 1.589 13.321 5.325 17.04 2.091-1.14-0.7-6.316-2.129-7.456 6.359-0.349 7.505 15.962 10.649 24.495-5.58-0.47-3.91-8.16-7.47-10.64z"/>
	<path d="m474.96 158.68c1.133 3.972-3.994 1.686-3.194 5.325-0.181 2.309 3.776 0.483 5.323 1.065 0.322 2.805-1.475 3.495-4.26 3.194-0.618 3.813 3.153 3.238 6.39 3.195-5.23 9.197-12.116-3.958-10.648-11.714 1.26-1.22 3.76-1.19 6.39-1.05z"/>
	<path d="m466.44 159.74c-3.564 5.366 0.234 7.576 2.129 12.777-6.661 0.626-5.383-6.686-6.389-11.713 0.95-0.83 2.41-1.15 4.26-1.07z"/>
	<path d="m453.66 162.93c-2.349 4.245 0.681 7.247 0 12.78-4.03-1.648-0.021-11.336-7.455-9.584 0.26-4.22 4.37-4.57 7.46-3.2z"/>
	<path d="m456.86 162.93c3.024 1.59 2.962 6.268 3.195 10.651-3.13-1.49-3.28-5.95-3.2-10.65z"/>
	<path d="m384.44 164c13.071 11.066 22.986 25.291 33.014 39.401-6.453-5.436-11.521-12.859-17.04-19.169-5.63-6.43-11.11-13.13-15.97-20.23z"/>
	<path d="m439.82 164c4.856 0.791 7.909 7.976 5.324 12.78-2.26-1.999-0.021-8.499-3.195-9.585-3.15 1.866 0.616 5.673 0 8.519h-4.259c-0.02-4.65-0.63-9.87 2.14-11.72z"/>
	<path d="m425.97 166.13c4.561-0.237 4.342 3.543 8.519 1.066-0.755 3.948 1.82 4.569 1.064 8.519-4.856 1.307-3.364-3.733-6.388-4.259-2.376 0.155 1.38 2.684 0 5.325-1.68-2.93-3.65-5.57-3.19-10.65z"/>
	<path d="m374.86 173.58c4.941-0.687 8.122 5.761 11.713 9.584 3.579 3.811 9.839 7.596 9.585 13.844-6.72-8.18-13.88-15.94-21.3-23.42z"/>
	<path d="m12.78 174.65c1.72-0.299 1.833 1.009 3.195 1.065-0.483 5.099 0.77 8.459 3.194 10.651-2.938 8.298 9.946 18.928 6.39 24.491-8.481-7.2-11.892-24.95-12.779-36.21z"/>
	<path d="m375.92 182.1c6.83 3.465 11.136 9.453 14.909 15.975-6.04-4.26-11.52-9.07-14.91-15.98z"/>
	<path d="m379.12 192.75c2.136 1.771 4.949 2.859 5.325 6.39-4.42 0.6-7.05-4.13-5.32-6.39z"/>
	<path d="m415.32 192.75c2.869 2.1 5.093 4.846 6.388 8.52-4.24-0.73-4.6-5.33-6.39-8.52z"/>
	<path d="m152.29 199.14c5.619 5.03 9.17 12.129 11.714 20.234-4.79-5.85-9.36-11.93-11.71-20.23z"/>
	<path d="m60.702 226.83c1.821 0.047 2.758-0.79 3.194-2.13 2.602 3.08 2.363 8.998 3.196 13.844-9.264-3.158-9.744-15.104-11.714-25.558 3.219 3.18 4.241 8.54 5.324 13.85z"/>
	<path d="m117.14 212.99c4.911 6.938 5.748 16.918 6.39 25.558-3.89-6.76-4.35-16.95-6.39-25.56z"/>
	<path d="m260.91 220.44c0.197 3.006-4.192 2.669 0 4.259-2.406 3.427-7.865-6.885-2.13-3.193-0.597-1.534-1.662-2.6-3.195-3.195 1.72-3.34 3.38 2.18 5.33 2.12z"/>
	<path d="m424.91 223.64c4.312 5.983 7.073 13.517 8.521 22.364-3.278-0.746-2.047-0.746-5.325 0-0.921-6.533-4.685-10.226-5.324-17.038 4.653 2.799 4.475 10.433 7.454 14.907 2.91-7.19-5.75-11.98-5.32-20.23z"/>
	<path d="m461.12 227.9c-8.345-0.533-15.05 0.57-22.363 1.066 3.02-3.57 19.86-7.26 22.36-1.07z"/>
	<path d="m67.091 228.96c4.209-3.098 3.36 7.962 5.325 10.648-5.497 0.17-2.441-8.21-5.325-10.65z"/>
	<path d="m417.46 231.09c4.396 0.928 5.827 9.297 5.323 11.714-3.66-2.01-3.58-7.78-5.32-11.71z"/>
	<path d="m414.26 234.28c2.403 2.213 4.261 4.969 4.259 9.584-4.15-0.24-5.87-6.92-4.26-9.58z"/>
	<path d="m450.47 239.61h-10.649c0.66-2.98 11.16-5.44 10.65 0z"/>
	<path d="m362.08 256.65c-6.598-0.655-23.741 1.323-26.624-1.066 3.758-1.71 7.878 0.891 13.844 0 3.13 0.11 11.81-3.77 12.78 1.07z"/>
	<path d="m354.62 257.71c-1.825 3.501-8.966 1.683-13.845 2.129 1.23-4.09 9.33-1.32 13.84-2.13z"/>
	<path d="m118.21 290.73c4.814 0.196 8.434 5.929 6.39 9.584-1.65-2.425-2.218-2.01-5.324-1.064 0.75-3.95-1.83-4.57-1.07-8.52z"/>
	<path d="m165.06 291.79c4.642 9.499 1.162 28.943 5.324 41.531-2.451-2.723-6.087-6.571-6.389-12.777 2.195 0.289 0.254 4.715 3.195 4.259 0.854-3.695-1.586-4.093-1.065-7.454-1.036 0.028-0.827 1.302-1.065 2.129-4.87-6.91 0.55-20.93 0-27.69z"/>
	<path d="m277.95 310.96c3.972-2.159 9.717 3.032 11.714 6.39-4.4-1.63-7.67-4.4-11.71-6.39z"/>
	<path d="m87.325 238.54c-1.766 2.881 1.632 9.692 2.13 13.847 4.341-0.882 3.667-0.165 8.52 0 2.062-4.403-2.164-6.828-3.195-10.651-6.633-24.586-5.24-51-7.454-75.61 3.101 1.563 2.92 6.709 3.194 9.584 1.361 14.235-0.393 30.715 2.13 44.728 1.111 6.166 2.803 16.747 5.325 24.494-1.886-26.021-5.268-54.78-5.325-82.001 4.42 2.092 4.261 12.882 4.26 19.169-0.001 5.126-1.32 10.174-1.065 14.909 0.614 11.395 2.349 28.277 4.26 44.727 0.433 2.053 4.128 0.842 3.195 4.261-2.737-2.854-1.522 2.853-4.259 0v6.391c4.955 1.403 3.563-3.536 8.519-2.132-7.785-20.872-7.416-48.392-8.519-73.479 5.881 3.164 2.383 16.763 3.194 27.688 0.961 12.925 2.883 33.104 6.39 46.856 5.182 4.388 10.165-0.195 14.909 2.13 2.352-0.132 0.452-4.519 1.064-6.39 1.86 0.979 2.351 3.33 2.13 6.39 4.448 0.24 5.029-1.731 8.52 0 3.992-0.839 0.067-3.724 2.129-5.325 2.129 1.422 0.14 6.96 5.326 5.325-0.54 3.366-6.083 1.726-7.455 4.26 0.563 0.857 1.111 1.729 1.065 3.194 5.058-1.746 2.452-4.589 8.52-5.325-1.269-1.471-2.828-11.941-4.259-6.388-5.044-21.688-18.637-40.883-28.753-60.701-1.802-13.289 1.72-23.077 4.259-33.012 1.955-7.645 2.292-15.553 4.26-21.3 1.218-3.557 4.236-6.552 5.325-9.583 1.324-3.69 2.489-7.319 3.194-10.651 0.364-1.715-1.034-4.364-1.064-4.259 2.172-7.627 7.771-13.675 10.649-20.233 0.394-4.223-0.977-10.207 1.065-12.78-14.402-9.886-13.595-24.826-8.519-43.663-3.66 2.021-4.233 7.128-6.39 10.65-4.94-6.492 5.156-15.082 8.52-20.235 2.47 0.34 4.089-0.169 5.325-1.064 7-8.251 12.88-17.632 23.41-22.365 11.489 9.195 30.592-1.64 40.467 9.584 1.585-2.674 4.49-4.029 7.455-5.323 6.472 0.176 15.293 6.871 18.104 12.779 1.001 2.104 2.301 8.75 2.13 10.649-0.558 6.15-7.522 8.374-7.455 14.908 0.264 1.341 2.118 1.074 2.13 0 0.311 1.035-2.159 6.683 0 10.651-9.931 9.875 2.196 23.219 0 34.076-11.598-1.657-6.758 13.122-14.909 14.91 3.174 7.163 10.135 15.652 6.39 23.427 3.733 1.822 10.558-1.152 14.908-2.129 7.805-11.412 2.439-20.765 14.909-26.624 2.079-0.978 2.649-4.827 4.26-6.389 0.856-0.829 3.426-0.211 4.259-1.064 5.694-5.824 8.295-14.08 13.846-20.234 8.008-0.712 20.81 0.375 27.688-4.259 12.648 2.686 23.833-0.939 36.208 0-0.104 5.856 2.066 9.112 6.389 12.78-8.008 10.094-21.754 14.451-25.558 28.751-4.862 0.463-11.728-1.076-14.91 1.065 4.007 3.351-8.895 5.208-8.519 11.715 16.58-3.721 32.671-5.152 50.051-9.585 2.607 2.512-1.589 1.981-1.064 5.326 1.991-0.851 3.901-1.781 6.39-2.13-3.814-12.137 2.801-22.938-2.13-35.142 3.622-11.696-0.438-21.352 4.259-33.014 0.638-5.306-4.221-6.275 0-9.583 4.907-1.002 2.043 5.767 4.262 7.453 5.765-0.624 8.312-0.039 13.844-2.129 13.676 5.064 29.486 0.027 45.791 0 22.479-0.036 46.468 4.679 69.221 2.129 3.36-3.738 3.52-10.679 9.584-11.714 2.202 3.983-1.557 5.505-3.194 8.521 1.324 16.898-2.887 32.694-2.13 47.92-0.838 4.389 5.099 2.001 4.26 6.39-2.427-0.298-4.003 0.256-4.26 2.13 2.571 15.179 2.267 33.231 4.26 48.986h-4.26c1.092 2.459 7.131-0.03 6.389 4.259-21.756 1.82-48.915 4.188-72.415 7.455-2.454-0.326-1.183 3.079-3.192 3.196 8.07 22.101 13.901 46.442 19.167 71.351 5.999 0.108 18.572-4.621 20.234 1.064-7.328-0.229-13.693 0.504-19.17 2.129 2.295 12.63 6.313 29.934 6.39 38.338-2.809 0.324-2.747-2.224-3.193-4.26-15.617 0.439-19.491-0.97-31.949-1.065-1.491 0.377-0.092 1.875 1.066 2.129-3.53 3.288-17.28-5.011-13.846 3.196-5.773-0.259-10.36-1.706-17.037-1.065 3.44 3.303 12.692 0.796 15.973 4.261 1.998 2.03-0.631 1.927 0 5.323 1.092 2.459 7.129-0.028 6.39 4.262-7.542-1.411-14.128-2.952-22.362-1.066 4.343 3.821 15.183 1.146 21.298 3.195 1.019 3.838-4.598 1.888-5.325 1.064 1.485 3.839 7.043 3.605 10.648 5.325-6.016 3.115-14.183 2.371-21.299 2.129-11.866-0.403-27.738-1.28-40.466-2.129 0.78 0.995 1.937 1.613 3.194 2.129-3.901 2.439-8.944-3.092-14.908-2.129 1.77 2.844 7.347 1.882 9.583 4.26-7.131 2.144-11.609-7.546-22.362-5.326 6.854 5.926 17.758 7.802 25.558 12.78-1.133 2.826-5.769-0.206-7.455-1.066-8.205-4.181-17.048-12.054-30.883-11.714 11.448 5.946 26.45 8.34 36.208 15.976-2.951 2.881-7.031-2.144-9.584-3.195-1.339 0.264-1.074 2.116 0 2.13-3.65 3.845-9.395-7.862-11.715-2.13-11.746-4.938-22.48-10.887-36.208-13.844 2.934 6.781 19.496 5.177 19.169 11.715 4.689-1.835 13.026 0.903 14.91 5.324-2.324 0.679-3.389-3.018-3.195 1.063-8.345-3.012-16.136-6.582-24.493-9.584 3.382-3.311 6.373 2.803 10.648 2.13-6.066-4.993-11.659-4.562-15.974-4.259 3.838 6.812 13.604 7.694 21.3 10.649-12.572-0.425-21.816-7.396-33.014-11.714 0.263-1.156 2.117-0.722 2.129-2.13-5.084-1.872-3.452 1.638-9.583 0 8.131 9.615 27.03 8.466 35.142 18.103-5.14-1.604-8.62-4.868-14.909-5.324 2.815 3.575 10.11 2.669 11.715 7.455-9.475-3.306-17.12-8.438-26.623-11.714-2.493 1.208 2.727 3.56 4.259 4.259-5.31 7.985 8.1 14.222 7.456 24.494-5.396-0.286-3.102-8.259-6.39-10.65 0.401 3.617-0.814 5.229 0 10.65-2.879-3.221-6.575 0.959-6.391-5.326-1.527 0.117-5.551 4.677-5.324 0-1.497 4.538-5.016 7.054-11.715 6.39-1.226-1.257-1.204-3.763-1.065-6.39-2.352 0.133-0.451 4.519-1.063 6.39-2.893 0.762 0.763-5.021-2.131-4.259-3.246 1.302 1.558 4.063-1.065 5.325-3.969-3.521-3.412-10.902-6.389-12.78-3.135 4.248 4.335 6.988 3.195 12.78-4.068-0.903-3.559-6.38-5.324-9.585-2.381 0.458-0.432 5.249-1.064 7.455-2.719-2.607-3.642-7.009-5.326-10.65-3.092 2.479 2 5.737 1.065 9.584-3.356-1.612-3.548-6.391-5.325-9.584-2.758 1.699 2.371 8.039-1.065 10.65-3.362-0.543-2.946-4.864-4.26-7.455-3.121 0.903 0.637 3.429 0 5.325-2.349-0.845-1.384-5.007-4.259-5.325 0.479 3.846 2.73 5.155 1.065 8.519-5.806-2.003-6.426-9.191-9.584-13.844-1.6 2.365 3.869 6.74 3.195 11.714-4.3-2.088-3.564-9.213-7.455-11.714-3.07 3.144 1.496 7.682 0 12.78-3.005-2.13-8.28-11.158-4.259-10.65-0.336-3.547-5.048 3.206-4.259-2.13-1.678 1.064 0.114 7.625 3.194 7.454-1.719 3.329-3.372-2.183-5.324-2.129 2.374 3.208 1.946 4.408 0 7.455-6.964-5.461-8.875-15.974-13.845-23.429-2.449 8.499 8.409 12.878 8.52 22.362-4.241-2.858-5.416-8.783-7.455-13.843-4.111 6.813 7.136 12.459 4.26 18.104-2.941 0.455-1-3.971-3.195-4.261-1.444 0.33-0.883 2.668-1.064 4.261-5.551-10.586-3.228-31.736-7.454-40.467-0.165-2.65 1.673-3.297 2.13-5.324-4.353-1.226-8.989-4.55-13.844-2.131-4.85 8.586-13.834 14.066-15.975 27.688-1.056 6.718 0.911 13.575 0 20.233-8.591 1.138-5.169-9.739-7.455-14.908h3.195c0.51-11.559 5.155-18.985 3.195-33.014h-3.195c-2.325 4.744 1.152 8.621 0 17.037-2.542-0.678-0.395-15.204-4.26-18.103-2.945 7.58 2.065 16.379 2.13 24.494-2.174-2.843-1.937-3.123-6.39-2.13-2.704-6.172-6.756-10.994-7.455-19.168 2.227 0.966 3.247 3.142 3.195 6.388 3.195-9.957 2.829 10.064 8.52 10.651-3.014-5.152-0.994-15.337-4.259-20.235-30.397 0.486-65.015 0.239-95.844-1.063-11.605-0.493-24.036 1.62-33.013-3.196 9.254-4.353 20.349-2.182 34.078-3.195-13.656-5.38-32.006 5.51-39.461-5.33 3.153-3.604 6.129 2.05 10.649-2.131 10.467 5.367 40.543 0.119 52.182 0-21.6-2.624-30.955-1.375-53.247-1.064 0.543-4.225 6.974-1.379 2.131-4.259 27.937-2.607 59.479 3.684 80.934 0-25.017-2.472-54.887-2.282-82-5.326-1.073-3.202 2.373-1.887 4.26-2.129-0.16-1.971-3.606-0.653-4.26-2.13 3.981-2.011 4.263-0.787 2.13-5.325 30.849-0.541 50.033 1.249 75.61 1.066-1.76-7.115-4.951-12.8-5.325-21.299 1.534 0.24 0.372 3.177 2.13 3.193-0.336-22.022-4.826-46.833-3.195-73.48 3.567 23.057 2.409 50.838 6.39 73.48 2.689 4.055 4.556 8.934 4.259 15.974-1.64-4.03-1.702-9.65-5.323-11.71zm120.34-222.56c1.534 0.595 2.599 1.661 3.195 3.193-1.576 0.555-2.685 1.577-4.26 2.13-2.583-1.676-4.548-3.972-9.584-3.194 0.046 1.466-0.502 2.338-1.065 3.194 5.072 1.406 5.051 2.458 9.583 1.065 1.869 1.682 2.21 4.89 5.325 5.325 4.583 1.166-3.449-2.945 0-3.195 0.362-0.025 2.156 0.959 2.13 1.066 0.967-3.968-4.26-8.3 2.129-4.261 0.239-2.013-1.2-2.349-1.065-4.259 2.116 0.015 1.354 2.906 4.26 2.129 0.278-3.117-2.408-3.271-2.129-6.388-4.2-0.289-7.41 0.409-8.53 3.195zm-42.6 3.192c-4.971 1.833-8.367-1.324-10.649 3.195 6.897-1.395 11.133 3.288 17.038 1.064-0.08 1.857 0.238 3.314 1.065 4.261 5.413-4.856 12.844-1.834 19.169-6.39-3.64-2.73-10.204-2.73-13.844 0-6.229-6.576-8.229-2.642-13.844-5.323-0.06 1.466 0.49 2.337 1.05 3.193zm52.19 51.119c-3.076 3.667-3.944 9.544-9.585 10.647 0.442-4.526 3.026-6.912 4.26-10.647-2.53-0.667-4.958-1.434-5.325-4.261 1.901-6.972 10.473-7.276 14.909-11.715-1.008-5.381-2.988-9.791-2.13-17.037-6.395 0.95-15.544-2.116-24.493-4.261 2.026 9.991 6.8 14.397 4.259 22.364-2.339 7.339-5.642 9.979-10.649 13.844-0.096 3.979-1.194 3.036 0 6.39-2.216 0.624-3.442 2.238-5.326 3.195-2.171-0.313-2.088-2.881-4.259-3.195 0.193 2.323-0.871 3.389-3.195 3.195-1.941-2.674-7.278-1.95-7.455-6.39-0.423-2.552 4.851 0.59 3.194-3.195-1.918-0.92-3.338-2.339-4.259-4.259-1.477 1.719-0.9 5.489-3.195 6.389-0.595-5.21 0.104-9.125 4.26-9.584 2.924 1.691 4.917 4.311 8.52 5.324 0.032-7.438-11.296-11.411-17.039-6.389-0.613 12.68 5.564 18.574 11.714 24.493 3.865 1.026 0.895-4.784 4.26-4.26 2.966 1.584-2.251 4.76 2.129 4.26 2.397-0.442-0.159-5.839 3.195-5.323v6.389c19.705-4.663 4.324 35.47 24.493 23.428-1.472-8.217 5.223-8.267 6.39-13.844-1.896-0.637-4.422 3.122-5.325 0 0.345-4.271 6.528-2.701 7.454-6.39-1.309-3.913-6.412 2.581-7.454-1.065 3.145-1.115 2.036-6.483 6.39-6.389-0.306 5.014 7.592 1.533 9.584 0-4.142-1.563-2.541-14.465-6.389-12.78 0.65 0.058 1.26 0.158 1.07 1.065zm-55.38-34.079c-3.326 3.53-1.602 1.705-5.325 0-3.358-1.537-9.449 3.017-11.714-1.063-0.239 2.012 1.2 2.349 1.065 4.259-3.939-1.937-8.244 9.219-10.65 2.129-1.269 2.967-1.22 6.48 1.065 8.519 0.517-8.073 7.869-1.764 11.714-1.064-1.025-5.234 5.232-1.53 5.325-3.195-1.338-0.436-2.176-1.373-2.13-3.195 1.767 0.226 8.008 4.178 5.325 2.13 0.305-1.876-5.015-3.297-2.129-4.26 2.601 0.593 2.269 4.121 6.389 3.195-2.48-4.224 1.25-3.05 1.05-7.455zm28.75 15.974c0.709-6.162 3.733-10.588-2.129-14.908 0.929 3.413-1.64 3.329-3.195 4.259-2.672-1.232-3.566-4.243-7.455-4.259 3.23 8.07 9.92 6.28 12.78 14.908zm-2.13 5.325c-1.221-10.139-8.408-14.311-14.909-19.169 5.26 6.108 10.26 12.457 14.91 19.169zm236.42-12.779c-6.302-0.059-4.639 3.719-7.452 5.324-9.171-0.783-17.199-4.625-28.754-1.064 6.187 0.855 2.071 10.024-3.195 9.584-1.068-0.09-2.522-2.725-4.26-3.195-2.307-2.728 6.74-3.083 5.324-4.259-1.548-0.583-5.504 1.243-5.324-1.066 5.204-1.39 6.058-1.253 7.455-5.324-3.012 1.313-6.574 1.313-9.585 0 1.504 5.686-3.993 9.032-10.649 9.583 1.105 0.154-3.019 3.997-3.194 6.391-5.73 0.404-6.481-4.168-9.585-6.391 2.642 0.158 5.169 0.2 5.323-2.129-2.102-0.736-2.838-2.84-3.193-5.323 5.437-0.601 13.695 1.625 15.974-2.131-8.343-0.535-15.049 0.57-22.362 1.065-6.347 6.078-2.99 21.858-5.326 31.949 44.496 1.284 94.017-1.581 133.12-8.521 1.165-7.71 2.74-15.009 3.195-23.428-1.854 0.08-3.312-0.237-4.259-1.065 1.921 5.471-3.839 3.262-4.26 6.39 1.674 0.101 3.691-0.143 3.193 2.13-2.168 2.425-7.308-2.141-11.714 1.063 3.98 1.592 6.1-1.125 7.454 2.13-0.229 2.001-9.675 0.13-6.388 2.131 1.887 0.242 5.331-1.074 4.259 2.13-4.572 0.116-7.84 2.173-10.648-1.066 1.258-0.516 2.414-1.135 3.193-2.129-5.557-1.042-13.515 2.375-19.169-2.13-5.41-0.688-8.165 2.551-9.584-2.129 7.413-0.398 16.601 0.979 22.364-1.066 2.012-0.217 10.521 0.719 7.454-1.064-9.17 0.726-16.277 0.103-22.364 0-11.718-0.201-20.821 4.773-23.429-1.066 4.229-0.742 11.796 1.856 12.78-2.129-2.938-0.966-7.478-0.332-9.585-2.13 1.3 0.339 6.57-0.172 3.19-1.065zm-113.95 26.623c-11.189-3.302-27.163 1.487-42.597 2.129-1.144 4.893-5.812 6.259-6.391 11.715 3.914-0.346 5.892-2.627 9.583-3.194 0.895 1.235 1.406 2.855 1.066 5.323 6.388-1.737 12.387 2.473 8.519 7.455-1.36-0.058-1.475-1.364-3.193-1.064 0.255-1.52 1.753-1.796 2.13-3.195-3.068-0.127-6.973 0.582-8.521-1.064-1.187 8.042-11.118 7.339-13.843 13.844 11.099-1.686 20.656-0.086 29.819-1.065 0.828 0.235 1.236 0.891 1.063 2.129 5.385-0.649 4.961-7.109 10.65-7.455 3.618-0.068 1.629 5.47 5.323 5.326 3.53-0.729 4.827-3.691 5.325-7.456 7.257-8.36 12.647-18.59 20.234-26.622-7.54-0.09-14.12 0.78-19.17 3.189zm166.13 11.714c2.749 0.092 1.122 4.56 5.325 3.195-0.438-3.335-3.843-4.353 0-6.389-2.03-0.455-1.927-3.044-5.325-2.13-0.66 4.522 3.85 2.846-0.01 5.324zm-335.45 8.52c16.513 10.463 31.041 22.916 46.857 34.076 1.705-3.127-0.438-5.067-2.13-7.455-9.284-13.089-32.069-17.837-43.662-28.752 18.527 2.812 27.804 19.213 47.921 17.038 0.249-6.639-1.736-11.042-3.194-15.974-17.278-0.869-33.194-8.634-46.857-9.585 0.28 3.619-0.83 8.639 1.06 10.654zm205.53-9.584c-0.644 10.358 1.332 23.34-1.064 31.947 4.168-0.619 6.184 0.917 8.521 2.13 9.468-5.795 23.578-6.95 29.818-15.974 0.732 7.895 2.862-4.037 6.389 1.066 1.656 3.785-3.616 0.642-3.195 3.193 6.583 4.068 12.494 8.807 17.039 14.91-10.17 12.902-18.75 27.396-26.624 42.597 10.015-3.213 22.052-1.974 31.949-5.325 1.92-0.649 3.278-2.64 5.326-3.195 12.359-3.349 26.614-5.683 39.401-7.453 7.38-1.022 13.269-2.793 18.103 0-1.592 0.181-3.93-0.382-4.259 1.064 2.541 2.227 6.821-0.261 9.585-1.064-1.716-20.53 3.222-34.406 3.195-53.248-5.488 1.089-9.287-3.518-12.78-1.064 1.12-2.694-3.592-4.721-4.26-2.13 3.312-0.504 3.995 2.867 1.064 3.194-4.379-0.271-2.317-7.615-7.454-4.259-1.432 3.005 5.643 2.669 2.131 4.259-3.398-0.631-3.295 1.999-5.325 0 0.726-2.622 1.401-9.33-4.26-8.519-2.462 1.872 2.459 8.979 1.064 9.583h-4.26c-0.633-2.207 1.316-6.997-1.065-7.454-1.493 3.476-3.856 6.083-6.389 8.519-1.875-4.717 1.859-9.17-3.196-9.584-2.511 1.897 3.086 4.654 1.066 9.584-2.722 0.814-4.896 1.569-6.39-1.064 0.785-1.698 5.213 0.244 4.259-3.195-3.077-9.05-17-6.501-24.493-8.519-1.483 1.355-0.463 5.216-3.193 5.323 0.338-2.468-0.173-4.088-1.066-5.323-19.75 0.516-40.84-3.151-59.65-0.012zm-89.46 8.519c-10.611 5.619-20.756 17.347-21.299 30.883 4.44 0.535 4.697-3.112 9.585-2.129 1.436-1.421 2.667-11.292 5.324-12.78-0.627 0.353 0.664 3.858 1.065 3.195 0.76-1.248-0.446-3.909 0-5.325 2.671-8.46 19.916-9.362 15.976-17.039-3.63 3.003-6.27 0.884-10.65 3.199zm-105.42 10.65c-4.996-0.36-8.794-7.498-13.845-4.261 5.43-0.074 10.04 6.251 13.85 4.261zm11.71 9.59c-8.235-5.293-18.709-11.382-27.688-7.456 3.26 0.645 5.548 2.26 8.52 3.194 1.237-4.344 6.992-0.699 8.52 1.065-1.593 0.181-3.931-0.38-4.26 1.064 2.832-0.599 5.423 4.381 7.455 1.066-1.299-0.122-2.521-0.318-2.129-2.13 2.67 0.93 7.78 4.93 9.59 3.2zm74.54 18.1c8.211-2.914 19.288-7.767 29.819-9.584 3.836-0.663 7.737 0.984 11.714 0 8.524-2.112 14.998-7.54 15.974-15.974-6.861 4.851-11.385 12.043-20.233 14.908 1.22-3.349-1.674-2.588-2.131-4.259-16.774 5.235-35.168 8.851-50.052 15.974 0.83 0.235 1.238 0.892 1.065 2.131 3.124 2.913 10.103-6.862 12.78-1.066-1.833-0.056-2.731 0.82-3.196 2.13 5.451 0.835 7.736-1.493 12.779-1.064 0.216-1.357 3.096-5.218 1.065-5.326-1.82 1.42-8.09 3.89-9.58 2.13zm-94.77-18.1c-3.914-0.348-5.893-2.627-9.584-3.196 0.1 3.84 8.91 6.54 9.58 3.2zm247.06 0c-2.652-0.604-6.662-5.328-9.584-2.132 2.74 0.51 7.69 4.29 9.58 2.13zm-18.1 2.12c9.182 1.123 17.657 8.597 26.623 6.39-9.63-0.67-17.37-8.88-26.62-6.39zm-6.39 2.13c6.733 2.851 15.997 3.171 21.299 7.455-9.297-1.463-18.716-8.115-28.753-5.326 4.315 6.69 11.408 10.602 18.105 14.91 5.877-3.708 14.053-5.118 18.104-10.651-9.08-1.47-20.88-10.72-28.76-6.38zm34.08 2.13c-7.702-1.537-15.749-8.374-23.428-6.388 7.19 2.05 16.93 7.19 23.43 6.39zm-250.26 3.2c0.65-0.061 1.261-0.158 1.065-1.064-4.635-2.835-12.8-7.767-18.104-6.39 5.37 2.78 12.5 3.83 17.04 7.45zm-7.46 0c-1.187-2.764-7.666-5.761-9.585-4.259 3.66 0.96 4.62 4.6 9.58 4.26zm177.84 7.45c-0.012-8.886 11.68-6.067 13.845-12.778-8.82-0.79-22.15 6.53-13.84 12.78zm36.21 1.07c-0.713 2.41-4.801 6.88-6.389 2.129 4.473-1.204 7.382-3.977 10.647-6.388-3.444-1.536-9.397 2.313-13.844 3.193 5.038 7.793-5.316 21.658-8.519 24.494 1.825-7.103 8.682-13.469 7.454-20.232-5.316 2.077-4.425 8.237-6.39 12.778-2.051 4.746-7.171 9.416-6.39 15.974-5.573 3.669-5.449 18.671-10.647 19.168 4.957-16.428 13.531-34.624 19.168-46.856-0.007-3.899-6.248-1.562-5.324-6.39 2.948-5.215 12.19-4.137 14.909-9.584-7.254 1.267-11.338 5.704-18.105 7.456-1.474 4.59 5.438 3.098 2.13 6.388-3.738 2.417-3.501-2.246-6.39 0-3.844 17.456-10.224 36.194-14.908 52.182-1.306 4.453-0.301 11.351-5.323 13.844 1.815-6.824 3.075-15.231 5.323-23.428 4.278-15.598 11.94-31.117 11.714-44.727-2.045 3.383-8.229 1.576-12.778 0-6.988 18.074-7.661 43.724-10.65 62.831-1.473-20.173 2.426-37.86 4.259-57.506 0.271-3.819-3.196-3.902-3.193-7.455 5.297-0.803 5.993 0.379 10.649-1.066 0.933-2.971 2.549-5.26 3.195-8.519-9.27 1.82-27.388 3.787-36.209 9.584 2.936 11.27 4.216 24.203 4.26 34.078 0.04 8.518 6.098 15.52 3.195 22.364 3.049 5.212 4.033 15.156 3.195 22.363-6.729-24.152-10.086-51.682-18.104-74.545-0.198 1.578-2.573 0.976-4.26 1.066 0.641 11.136 7.481 19.111 5.324 29.817 2.035 4.697 5.051 10.944 6.39 17.039 0.343 1.556-1.274 3.765-1.063 5.323 1.244 9.245 9.694 17.514 7.455 26.624-8.885-23.75-16.908-52.921-24.495-74.544 3.229-0.034 1.032 5.357 4.26 5.323-1.113-2.436-0.676-6.424-2.129-8.519-1.867-2.395-8.195-0.326-8.52-4.259 2.695 1.718 9.467-2.057 10.648 3.195 1.562-5.423 8.47-3.75 11.715-3.195-0.327-6.005 6.111-5.248 7.454-9.584-8.841 1.46-24.262 5.551-35.144 8.519 4.566 8.292 12.312 18.82 10.65 29.819 3.714 5.516 7.298 11.159 7.454 20.233 4.782 8.357 11.452 20.489 12.78 28.753-9.095-17.083-18.73-39.656-26.624-58.57-1.999-4.789-5.775-16.956-12.779-11.714 12.61 18.626 19.635 42.841 31.947 61.766-16.158-18.983-25.394-44.891-43.662-61.766 0.312-0.655 2.649-4.1 0-4.259-5.983 4.218 1.494 9.892 4.26 13.844 18.345 26.206 37.436 54.68 54.312 79.87 4.312-1.145 7.402-1.145 11.714 0 17.49-32.917 36.937-63.877 57.506-93.713-0.215 1.355-3.095 5.216-1.064 5.323 0.829-2.772 3.956-8.752 5.326-7.455-6.351 12.822-14.556 23.782-20.235 37.273h-3.195c-14.49 22.426-28.283 45.551-42.597 68.155 1.566 3.759 3.168 7.482 8.521 7.455 18.739-28.826 35.784-59.352 55.374-87.324-0.786-2.391-0.081-7.075-3.193-9.585-2.159 3.195-4.849 11.44-7.454 10.648 4.521-9.28 14.277-19.804 14.909-28.753-3.5-0.02-4.74 4.43-8.51 1.1zm8.52 6.39c1.988 0.851 3.899 1.781 6.39 2.13 0.255-1.52 1.753-1.795 2.129-3.194-1.992-2.71-5.13 2.38-4.26-3.195-2.71 0.12-4.13 1.54-4.26 4.25zm-40.47-8.52c4.678-1.923 14.653-5.279 19.169-10.649-6.42 2.38-20.09 6.43-19.17 10.65zm-144.83-1.07c-4.156-1.195-9.274-7.015-12.779-5.324 4.34 1.02 9.47 6.82 12.78 5.32zm159.74 2.13c4.77 0.166 13.408-3.131 17.039-7.455-4.53-0.37-13.19 3.65-17.04 7.45zm-199.14-6.39c-5.301-3.526-11.087 4.474-10.65 6.39 1.807-1.742 2.646-4.453 6.39-4.259-1.472 3.143-4.918 4.311-6.39 7.454 4.31-2.43 8.06-5.42 10.65-9.58zm4.26 2.13c-6.698-0.288-11.329 7.1-11.714 9.584 3.4-3.69 8.7-5.49 11.71-9.58zm7.46 0c-3.536 1.637-4.024-5.04-6.39-1.064 1.258 0.516 2.415 1.135 3.194 2.13-4.41 0.591-10.702 4.872-9.584 7.455 2.253-2.718 6.008-3.934 9.584-5.326-1.65-3.79 3.62-0.64 3.2-3.2zm88.39 60.7c-1.815-4.928-5.431-8.057-8.52-11.714 1.22 5.52 4.76 8.72 8.52 11.71zm11.71 12.78c3.836 5.42 8.021 10.626 11.715 15.974 7.432 10.767 12.86 23.023 22.363 31.949 1.706-3.265 5.654-4.287 6.39-8.521-25.102-35.599-49.206-72.196-74.545-107.56-2.597 2.728-6.37 4.279-9.584 6.388 15.2 20.27 29.53 41.8 43.67 61.77zm-48.99-17.04c1.179 3.285-0.546 9.766 4.26 12.779-0.529-4.337 1.613-8.392 1.065-12.779-1.588-12.705-8.835-16.064-15.974-24.492-9.491-11.208-11.616-17.152-21.299-23.429-6.762 0.354-13.031-1.878-19.168-1.066-10.869 1.437-25.603 16.222-27.689 25.558-4.824 21.594 10.391 28.688 10.649 42.598-3.447-7.558-7.006-15.002-12.779-20.233 2.98 10.51 8.404 18.574 13.844 26.623 0.182-1.593-0.38-3.931 1.064-4.26 4.254 21.661 12.027 39.8 22.364 55.377 1.137-0.993 0.332-3.929 3.195-3.195-2.611 6.579 2.751 9.473 5.324 13.844-0.013 1.407-1.867 0.974-2.13 2.129 4.129 2.617 4.131 9.359 9.584 10.651 5.774-4.075-0.429-5.815-2.13-10.651 1.833-0.419 2.73 1.582 3.195 0-2.046-4.699-6.822-6.667-8.52-11.713 1.465-0.046 2.339 0.503 3.194 1.065-2.012-5.812-7.972-13.305-8.519-17.04 2.171 0.313 2.088 2.884 4.259 3.196-1.023-6.094-9.37-10.486-7.455-15.974 8.698 14.02 19.453 25.982 29.818 38.336-9.142-5.058-13.789-14.609-21.298-21.298 5.209 12.188 19.702 20.758 25.558 28.753-5.371-2.083-8.511-6.397-12.779-9.585 3.915 9.227 17.65 14.291 20.234 21.299-8.549-3.881-15.785-14.733-22.363-17.04 4.559 4.153 7.778 9.382 12.779 13.847 4.983 4.445 12.511 11.933 17.039 8.519-5.603-7.888-10.465-16.514-14.91-25.558 6.537 4.354 8.857 23.468 18.104 18.103-11.815-7.268-19.936-24.972-20.234-37.272 1.439-0.179 2.129 5.416 3.195 2.131-2.852-6.568-4.881-14.781-5.325-21.3 7.491 13.1 11.515 29.662 20.234 41.531-3.091 5.14 3.256 5.512 3.195 10.651-5.211-1.889-4.748-9.45-9.585-11.715 1.76 6.052 6.311 9.31 8.52 14.91 2.656 2.047 4.376-1.627 6.39 1.063-0.293 2.193-3.967 1.003-4.26 3.195 5.54 0.214 5.551-5.099 7.455-8.521 2.346 2.474-0.211 6.047-1.065 8.521 9.169-0.526 0.682-16.165 4.259-23.429-0.618-2.933-2.651-4.448-3.194-7.454 5.595-1.936-2.417-6.062 1.064-8.521 4.43 5.854 9.271 23.551 5.325 27.689 1.042 1.442 3.59 1.379 4.259 3.193 2.586-3.449 3.024-9.045 6.39-11.714 0.521 7.992-8.894 11.675-6.39 18.105 5.075-9.202 13.867-16.926 8.52-30.884 1.299-0.121 2.522-0.318 2.13-2.129 0.099-3.354-3.955-8.032-1.064-10.651 12.277 4.183 8.437 26.927 5.324 38.339 10.873 0.668 6.904-17.076 8.52-22.364 1.799 4.235 0.836 11.233 1.065 17.039-0.606 2.713-8.636 7.738-4.261 8.521 2.312-3.75 10.674-7.046 7.456-12.78-0.104 1.674 0.141 3.693-2.131 3.195 0.104-9.849 3.06-39.479-14.909-34.078-3.675-1.296-3.562-6.378-9.584-5.325-2.35 7.483 10.695 18.908 1.064 25.558-3.529-8.538-2.614-21.522-11.714-24.492 0.462 2.369 2.447 5.774-1.064 6.389-5.793-17.26-16.661-33.369-17.039-50.051-5.888-8.317-10.656-23.414-10.65-34.078 1.07 8.95 6.63 14.09 9.58 22.32zm4.26 122.47v-5.323c-7.176-3.483-13.696-13.271-20.233-13.844 3.274 3.841 11.656 8.197 11.714 11.714-5.78-4.515-10.934-9.654-17.039-13.846 0.583 1.549-1.244 5.505 1.064 5.325 1.77-0.25 15.652 10.509 8.52 9.584 4.68 2.8 8.72 6.21 15.98 6.4zm36.21-30.88c-0.335 1.44-1.516 2.035-1.065 4.261 1.44 0.335 2.034 1.515 4.259 1.064 0.21-3.05 0.14-5.81-3.19-5.32zm4.26-118.21c-2.964-6.264-5.756-12.702-9.583-18.104-2.19 6.03 9.75 17.63 9.58 18.1zm170.39 21.3c0.479-7.398-8.874-10.863-4.259-15.974-3.137-2.359-8.646 0.027-10.65 2.13 4.177 4.343 6.971 10.07 11.717 13.843-0.9-4.781-4.915-6.445-6.391-10.648 5.35 1.38 5.22 8.26 9.58 10.65zm13.84 58.57c-4.127-19.043-8.328-38.714-18.103-50.052-5.521-6.405-13.793-19.973-20.234-21.299-5.843-1.204-11.868 3.978-18.104 2.13-3.493 4.67-6.006 10.322-9.585 14.909 0.903 10.812 4.201 19.228 3.195 31.947-5.368 8.833-12.846 15.553-18.103 24.494 3.219 0.329 8.282-1.184 8.519 2.13-4.889 0.63-8.189-0.331-10.65-2.13-1.263 7.611-8.204 9.544-10.648 15.974h21.299c-4.97-3.956-13.204 1.896-17.039-3.195h20.235c-0.159 3.62 1.872 1.63 3.192 5.325-13.166-0.218-34.726-5.559-39.401 7.454 38.908 1.204 74.468 2.49 111.82 3.195-2.3-9.91-3.93-19.43-6.41-30.86zm-12.78-47.92c-3.532-3.574-6.099-9.059-9.585-13.844-2.929-4.021-6.605-10.943-11.714-9.585 8.88 5.31 13.59 20.47 21.29 23.42zm-299.24-8.52c-0.49-3.813 1.115-15.261-1.065-13.846 0.48 3.82-1.12 15.26 1.06 13.85zm222.57 12.78c0.012-1.072 1.868-1.338 2.13 0 0.488 3.327-2.274 3.405-5.325 3.195-3.873 11.747-10.975 20.263-15.974 30.883 1.939 13.298-4.073 18.646-10.648 23.429v8.519c4.944-1.767 1.705 5.452 4.26 8.521 2.294-0.9-0.4-6.788 2.129-7.454 2.622 1.26-2.181 4.022 1.065 5.325 2.461-2.764-0.32-4.014 2.131-7.455 1.027-1.444 5.413-2.137 6.388-3.195 0.541-0.586-0.495-2.562 0-3.195 0.411-0.523 2.664 0.433 3.196 0 2.032-1.651 0.204-6.84 3.193-2.129 1.977-2.674-0.354-10.289 5.325-6.39 0.414-2.781 0.547-5.843 2.13-7.454 1.759 0.016 0.596 2.953 2.13 3.194 0.32-3.51 0.392-10.79 4.259-7.455 3.675-13.367 18.894-22.989 13.847-44.727 1.271-1.851 4.149-7.531 0-8.521-4.663 7.408-6.226 17.915-7.456 28.753-4.963 4.27-8.507 9.952-13.844 13.845 3.204-1.074 1.888 2.373 2.13 4.261-0.927 1.559-1.594 3.374-4.261 3.193-5.76-13.942 9.628-24.124 6.39-38.335-2.1-0.48-5.47 2.89-3.22 3.22zm-72.42 39.4c-3.259-7.438-9.703-15.554-13.844-21.301-1.329-1.842-2.118-7.033-5.326-5.323 6.62 8.64 12.42 18.11 19.17 26.62zm-19.17-22.36c-0.47 4.021 2.102 5 3.195 7.456-6.041 12.745 18.039 20.398 11.714 26.624 3.174 2.862 5.243 6.826 9.586 8.519 2.466-2.197-7.792-6.323-5.325-8.519 3.838 2.195 5.746 6.321 9.585 8.519-8.718-11.55-12.804-24.05-23.429-35.143-0.121 1.299-0.318 2.521-2.131 2.129 4.12-3.09 0.12-7.89-3.2-9.59zm5.33 21.3c-2.185 2.71 4.809 9.701 7.454 7.455-3.03-1.95-3.88-6.06-7.45-7.46zm6.39 15.97c-1.559-0.927-3.375-1.594-3.193-4.259 1.258 0.154 2.413 1.896 3.193 0-1.769-1.78-2.788-4.312-6.389-4.26-0.493 8.304 3.183 12.436 9.583 13.845 1.02-1.984-3.188-3.56 0-4.26 0.881 1.35 3.731 6.072 5.324 3.193-2.25-2.58-8.13-9.25-8.51-4.26zm12.78 23.43c-0.445-5.946-2.815-9.964-4.262-14.907h-6.388c3.772 11.319-2.182 23.507-7.455 31.946 4.611 0.351 2.621-5.897 7.455-5.325-0.612 2.993-7.763 4.947-4.26 8.521 3.113-2.211 3.865-6.783 8.519-7.454 0.189 8.722-12.08 10.619-11.714 15.973 6.915-3.732 10.452-10.845 15.974-15.973-1.583 4.805-4.389 8.39-7.455 11.714 15.011-4.406 4.385-24.095 3.195-36.209 4.28 1.73 3.7 8.35 6.38 11.71zm27.69 0c-0.435 0.248 0.786 2.677 1.064 2.129 2.855-5.568 3.248-9.771 2.129-17.036 2.174-2.141 2.091 0.47 4.262 1.063v-6.39c-11.056 2.909-24.885 5.884-37.273 4.26 0.805 4.379 3.748 15.263 6.391 21.299-1.931 5.54-7.118 13.449-6.391 18.104 4.81-5.13 5.533-14.345 9.584-20.233 3.225 0.838-0.165 7.078 2.13 5.325 1.646-3.326 1.668-8.272 4.261-10.65 1.066 3.239 1.756 1.359 3.194 0 2.529 0.88-1.462 6.889 1.065 4.259 1.069-1.414 1.006-3.961 3.194-4.259-0.319 2.094 1.438 2.111 2.131 3.195-0.367 6.024-2.821 9.959-5.325 13.844-0.936-3.847 4.158-7.104 1.063-9.584-1.891 3.788-2.464 8.896-6.389 10.65 2.083-2.533 2.061-7.169 4.26-9.585-0.566-4.923-3.324 3.789-3.194 6.39-2.271 1.634-3.077 4.731-4.261 7.454 7.399 0.93 12.235-7.963 12.779-2.129-0.02-1.595 3.958-4.357 1.066-5.325-1.59-0.81 0.87-10.84 4.26-12.76zm5.32 18.1c1.97-2.289 7.834-0.685 9.584-3.196-2.252-3.655-3.691-1.498-5.325-5.324 0.336 2.905-4.925 5.61-5.325 4.259 3.119-6.354 6.6-12.217 4.259-21.299-6.673 1.848-5.458 11.58-8.519 17.04 4.55 0.07 2.57 6.67 5.33 8.52zm-259.84-29.82c-6.166-1.659-19.423-1.854-25.558 0 9.031-1.2 19.359 1.92 25.558 0zm30.883 3.2c3.585-0.675 9.892 1.371 11.714-1.065-3.33-0.16-10.405-3.25-11.714 1.06zm-5.325 3.2c6.13 0.159 14.57 1.654 17.039-2.132-26.936 2.086-50.73-4.643-75.61-1.063 19.293 3.19 39.505 2.69 58.571 3.19zm246 5.32c9.319-1.874 18.832 1.214 22.363-2.13-7.04 1.12-18.74-2.42-22.36 2.13zm-177.84 9.58c3.173 0.892 5.906 4.288 7.454 2.129-3.328-2.705-8.425-3.643-13.844-4.259-0.72 3.88 4.56 1.62 6.39 2.13zm203.4 0c1.253 0.166 3.023-0.184 3.194 1.065-2.375 0.464-3.796 1.881-4.259 4.259 3.682 0.222 5.02 1.515 7.454-1.065-1.872-0.256-2.427-1.831-2.129-4.259 0.827-0.239 2.101-0.029 2.129-1.064-1.76 0.12-9.63-0.58-6.38 1.06zm-107.56 14.91c-1.534-6.535 6.055-9.521 3.195-13.844-0.96 4.05-7.8 11-3.2 13.84zm-185.29-10.65c12.179-0.601 27.18 1.623 36.208-2.13-12.236 0.19-30.974-0.87-36.208 2.13zm273.69 7.46c-1.548 0.582-5.504-1.243-5.325 1.066 8.204-0.411 15.995 2.119 23.429-1.066-4.638-0.686-12.038 1.39-14.908-1.064 24.209-1.335 36.63 2.527 59.635 2.131 3.384-0.895-1.889-1.406-3.194-1.066-16.179-3.002-43.746-4.719-64.961-2.13 0.63 1.84 5.03-0.09 5.31 2.13zm-178.91 9.58c0.601-3.002 3.332-9.377 1.064-11.715-1.23 4.49-2.59 9.63-1.06 11.72zm161.87-9.58h-17.039c-0.826 0.239-2.101 0.029-2.13 1.066 3.72 1.58 27.83-0.5 19.17-1.07zm-126.73 14.91c-0.752-4.219-2.2-7.74-5.324-9.585 1.01 3.95 1.81 8.12 5.32 9.59z"/>
	<path d="m447.27 103.3c-3.202-1.072-1.888 2.373-2.13 4.259-2.272 0.498-2.028-1.522-2.129-3.195-1.859 0.981-2.351 3.33-2.13 6.392-1.254-1.587-2.675-3.008-4.262-4.262-4.58 5.473-11.352-1.785-14.908 2.129-0.562-4.467 1.861-5.947 2.13-9.584 3.513 0.041 4.071 3.03 4.26 6.391 2.353-0.134 0.452-4.518 1.066-6.391 4.521-0.972 5.359 1.739 6.388 4.261-0.033-2.987 2.896-5.033 3.196 1.064 3.122-0.901-0.638-3.428 0-5.325 2.862-0.732 2.058 2.203 3.193 3.196 1.446-0.33 0.885-2.666 1.066-4.26 2.649-0.165 3.296 1.672 5.325 2.129-2.291 3.988 2.041 3.219 1.063 8.519-3.58 1.1-1.66-3.31-2.13-5.32z"/>
	<path d="m470.7 126.73c2.325 3.626-12.869 2.183-17.039 3.194 4.97-3.12 10.61-0.53 17.04-3.19z"/>
	<path d="m471.77 130.99c-2.768 2.801 1.722 0.838 1.063 4.259-18.57 0.599-33.322 5.017-50.051 7.456 14.909 1.652 34.469-6.545 48.987-5.325-11.046 3.508-25.257 3.852-37.273 6.391 12.278 1.558 22.574-2.75 37.273-3.195-15.215 4.347-38.245 6.431-52.182 8.519 0.172-1.246 1.942-0.898 3.194-1.064-1.953-1.537-9.729 0.165-12.779 1.064 0.692 1.083 2.449 1.103 2.131 3.195-6.082 0.437-8.699 1.261-14.91 3.196 4.585-6.353-2.622 0.5-3.195-4.262 6.121 0.085 8.305-3.765 14.91-3.194 0.423-2.553-4.851 0.589-3.194-3.195 5.361-0.316 8.271-3.088 10.648-6.39 17.304-0.446 28.192-7.304 46.856-6.388-0.446 2.392-5.65 0.029-6.389 2.129 6.49 2.31 5.51-5.43 14.91-3.22zm-48.99 9.58c5.551-0.839 11.693-1.086 15.975-3.195-6.42-0.02-12.12 0.66-15.98 3.19z"/>
	<path d="m76.676 232.16c-3.544 4.582 5.252 10.645 2.129 14.908-4.799-5.14-3.833-16.046-8.52-21.298 0.119-3.772 3.521 2.261 3.195-1.066-0.816-9.478-1.059-19.529-2.13-28.753-5.668 5.94 0.948 16.35 0 24.494-5.728-4.837-3.391-14.212-4.259-21.299-2.252-18.384-4.477-41.18-1.065-60.701 5.01 2.501 1.196 8.32 1.065 12.779-0.183 6.173-0.061 13.16 0 20.235 0.083 9.531-1.304 17.996 3.194 23.428 4.585-10.679 0.985-29.542 2.13-43.663 3.929 4.355 2.061 11.036 2.129 15.975 0.254 18.067-2.506 40.186 3.195 60.7-0.066-16.081-2.927-51.108 0-73.48 4.866 2.799 1.41 8.979 1.065 12.78-0.795 8.727 0.689 12.683 0 20.233-1.714 18.771 1.369 43.304 6.389 63.896-4.902-4.33-3.901-14.56-8.517-19.17z"/>
	<path d="m149.09 217.25c-3.189 0.702 1.019 2.277 0 4.261-5.456-4.888-2.95-11.201-6.389-18.105 2.455-0.325 1.183 3.078 3.195 3.195-8.663-15.833-15.105-36.559-18.104-52.181 6.68 5.39 5.569 18.57 11.714 24.494 0.927 16.111 11.069 23.01 11.714 39.402 0.12 2.621 6.607 8.164 2.13 8.519-0.88-3.74-3.21-6.02-4.26-9.58z"/>
	<path d="m149.09 224.7c4.883 2.585 9.434 14.698 10.65 24.495-6.37-7.38-6.68-16.48-10.65-24.5z"/>
	<path d="m390.83 165.06c5.988 0.417 11.541 10.457 15.974 15.974 2.366 2.603 4.964 4.977 6.39 8.519-6.87-4.49-14.6-17.33-22.36-24.49z"/>
	<path d="m381.25 171.46c-1.034-0.029-0.826-1.305-1.065-2.13 7.217 7.138 18.788 16.277 25.56 26.622 1.159 1.774 7.138 6.812 1.063 7.454-4.125 0.795-0.394-1.556-1.063-3.192-4.05-9.9-18.18-19.29-24.49-28.75z"/>
	<path d="m463.24 194.88c-0.329-1.445-2.665-0.883-4.26-1.065 2.417-2.031 9.33-4.025 14.91-4.26 2.38-0.1 8.149-1.609 8.519 2.131-3.584 0.675-9.892-1.372-11.714 1.064 0.202 1.51 7.865-1.688 9.584 1.064-12.972 1.415-21.115 2.822-35.143 4.261 4.16-2.93 11.76-2.44 18.1-3.19z"/>
	<path d="m121.4 211.92c0.893-3.384 1.403 1.889 1.064 3.192 0.029 1.037 1.304 0.827 2.129 1.066 1.159 10.03 2.9 13.638-1.064 2.13-0.7-2.03-3.53-3.79-2.13-6.39z"/>
	<path d="m385.51 83.065c1.575 0.553 2.684 1.576 4.259 2.13-0.457 3.447 1.402 9.211-2.13 9.584-5.18 0.782-3.37-9.44-2.13-11.714z"/>
	<path d="m373.79 84.131c1.582 1.968 2.042 5.059 2.13 8.519-5.169-3.823-3.349 1.172-8.519 2.129 0.732-4.282-1.021-6.078-1.066-9.584 2.62-4.34 7.88 3.766 7.46-1.064z"/>
	<path d="m48.987 175.71c0.509 6.118 1.385 17.761 3.195 27.688-3.364-0.184-2.888-4.212-3.195-7.454-4.332 6.87 3.914 18.507 5.324 26.624-4.551-0.854-4.03-6.844-5.324-10.648-2.358-6.94-3.223-10.394-3.195-19.17 0.057-17.486-8.955-40.076-3.195-55.376 4.075 2.745 1.644 8.401 2.131 12.78 0.892 8.037 2.812 16.841 4.259 23.429 3.086-3.158-0.408-8.769 0-12.78 3.943 2.688 2.183 10.715 3.195 15.975 2.035 10.583 4.619 24.547 7.455 37.272-5.085-3.952-5.465-20.521-7.455-30.884-0.465-2.43-0.132-6.93-3.195-7.46zm0 17.04c-1.395-4.284-0.281-11.077-3.195-13.844 0.542 5.14-0.639 12 3.195 13.84z"/>
	<path d="m19.169 157.61c5.442-0.472 2.407 7.533 3.196 11.714 3.202 1.073 1.886-2.374 2.129-4.26 3.986 0.983 1.388 8.552 2.13 12.778 0.171 1.248 1.941 0.899 3.194 1.065 2.114 13.149 7.594 22.935 10.649 35.144-8.967-4.877-7.088-20.601-11.714-29.82-4.794 7.919-0.015 14.851 0 21.3-6.658-12-8.803-33.49-9.584-47.91z"/>
	<path d="m489.87 181.04c1.243 4.791-5.948 1.149-4.259 6.39-10.931-1.479-24.297 2.266-36.208 3.195 2.612-4.488 11.455-2.745 17.04-4.259-10.392-2.568-26.785 3.727-35.144 3.192 2.609-5.411 9.688-3.579 14.908-4.259 12.37-1.6 27.36-4.64 43.66-4.25z"/>
	<path d="m109.69 192.75c6.124 2.04 5.591 10.737 8.519 15.975-2.35 3.633-2.41-3.878-3.195-5.326-0.935 13.497 6.944 30.725 5.325 42.599-4.38-16.91-7.39-35.2-10.65-53.24z"/>
	<path d="m448.34 207.66c-3.352-2.934-8.375 1.521-13.846 0 7.295-9.793 30.223-8.265 41.532-10.648 0.301 1.721-1.006 1.833-1.064 3.196 3.504-0.046 5.301-1.8 9.584-1.066-1.408 13.437-21.885 3.528-31.947 9.585 7.08 3.153 13.963-3.059 23.428-1.066-0.118 2.722-3.565 2.115-6.388 2.131 0.446 2.393 5.648 0.029 6.388 2.131-3.949 4.2-10.368 1.63-15.973 2.13-8.682 0.773-18.15 3.181-25.56 4.259 1.587-5.158 11.108-2.383 14.909-5.325-4.578-3.212-13.1 3.547-17.04 1.066 2.58-4.38 7.25-5.99 15.98-6.39zm10.64-2.13c6.128-1.327 14.422-0.487 19.17-3.194-7.18-0.42-17.69 1.45-19.17 3.19z"/>
	<path d="m469.64 221.51c-8.628 0.742-20.195 3.755-27.69 2.129 0.903-1.583 3.43-1.541 5.325-2.129-1.462-2.747-6.524-0.237-8.519 0 1.75-3.98 30.34-10.11 30.88 0z"/>
	<path d="m171.45 234.28c-3.186-1.784-5.064-4.874-7.454-7.455 3.345 9.086 12.235 21.838 22.363 27.689-7.478 1.213-12.214-7.733-18.104-15.976-4.33-6.058-9.354-12.031-10.65-15.973-0.804-2.446 2.022-1.394 2.13-2.13 0.423-2.888-5.932-5.096-3.195-7.455 5.62 6.46 10.65 13.5 14.91 21.3z"/>
	<path d="m110.75 232.16c4.066-5.704-5.497-17.65 1.065-22.364-0.742 14.304 4.887 27.673 4.259 38.337-2.183-2.075-1.369-7.148-3.195-9.585-3.201 2.931 2.89 5.57 1.065 10.651-8.937-18.453-8.895-51.377-8.52-75.61 2.74 19.17 1.48 37.58 5.33 58.56z"/>
	<path d="m364.21 239.61c-0.789 3.998 2.325 3.02 4.26 6.39-6.235-1.221-13.707-1.203-21.3-1.064-0.852-4.05 5.036-1.355 7.456-2.13 0.179-2.311-3.777-0.482-5.326-1.066 1.2-3.4 8.41-1.59 14.91-2.13z"/>
	<path d="m152.29 308.83c0.947 0.827 2.405 1.146 4.259 1.063 1.585 6.58 2.894 13.436 4.259 20.235-10.47-1.14-7.96-12.41-8.52-21.29z"/>
</g>
<metadata><rdf:RDF><cc:Work><dc:format>image/svg+xml</dc:format><dc:type rdf:resource="http://purl.org/dc/dcmitype/StillImage"/><cc:license rdf:resource="http://creativecommons.org/licenses/publicdomain/"/><dc:publisher><cc:Agent rdf:about="http://openclipart.org/"><dc:title>Openclipart</dc:title></cc:Agent></dc:publisher><dc:title>bellows file</dc:title><dc:date>2008-04-06T17:11:27</dc:date><dc:description>from "A Textbook of Filing" by James N. McCord, 1920</dc:description><dc:source>http://openclipart.org/detail/16169/bellows-file-by-johnny_automatic-16169</dc:source><dc:creator><cc:Agent><dc:title>johnny_automatic</dc:title></cc:Agent></dc:creator><dc:subject><rdf:Bag><rdf:li>bellows</rdf:li><rdf:li>clip art</rdf:li><rdf:li>clipart</rdf:li><rdf:li>externalsource</rdf:li><rdf:li>file</rdf:li><rdf:li>historical</rdf:li><rdf:li>image</rdf:li><rdf:li>man</rdf:li><rdf:li>media</rdf:li><rdf:li>office</rdf:li><rdf:li>png</rdf:li><rdf:li>public domain</rdf:li><rdf:li>svg</rdf:li><rdf:li>work</rdf:li></rdf:Bag></dc:subject></cc:Work><cc:License rdf:about="http://creativecommons.org/licenses/publicdomain/"><cc:permits rdf:resource="http://creativecommons.org/ns#Reproduction"/><cc:permits rdf:resource="http://creativecommons.org/ns#Distribution"/><cc:permits rdf:resource="http://creativecommons.org/ns#DerivativeWorks"/></cc:License></rdf:RDF></metadata></svg>
