<?xml version="1.0" standalone="no"?>
<!DOCTYPE svg PUBLIC "-//W3C//DTD SVG 20010904//EN"
 "http://www.w3.org/TR/2001/REC-SVG-20010904/DTD/svg10.dtd">
<svg version="1.0" xmlns="http://www.w3.org/2000/svg"
 width="918.000000pt" height="1280.000000pt" viewBox="0 0 918.000000 1280.000000"
 preserveAspectRatio="xMidYMid meet">
<metadata>
Created by potrace 1.15, written by Peter Selinger 2001-2017
</metadata>
<g transform="translate(0.000000,1280.000000) scale(0.100000,-0.100000)"
fill="#000000" stroke="none">
<path d="M883 12785 c-86 -37 -190 -132 -225 -204 -19 -39 -22 -67 -26 -213
-6 -213 -1 -227 114 -349 46 -48 84 -96 84 -106 0 -21 -18 -49 -67 -107 -74
-88 -99 -233 -48 -280 40 -37 33 -68 -26 -118 -27 -24 -81 -82 -118 -129 -38
-47 -111 -132 -162 -188 -52 -56 -120 -139 -152 -184 -32 -45 -76 -100 -97
-122 -53 -56 -60 -74 -60 -154 0 -52 -4 -74 -16 -83 -61 -51 -65 -65 -38 -139
9 -24 20 -90 23 -146 l7 -103 50 -72 c64 -92 142 -155 264 -214 117 -57 201
-73 376 -74 114 0 133 -2 147 -18 10 -10 17 -28 17 -41 0 -34 24 -81 74 -145
25 -32 46 -63 46 -69 0 -6 -26 -39 -57 -73 -138 -151 -222 -262 -270 -357 -48
-97 -50 -169 -4 -262 56 -113 151 -178 281 -192 l75 -8 7 -75 c16 -154 70
-262 169 -334 33 -24 82 -70 108 -102 81 -101 155 -119 263 -64 111 57 132 39
126 -109 -3 -80 -8 -105 -31 -153 -26 -54 -28 -63 -21 -142 l7 -84 -71 -84
c-75 -89 -199 -195 -285 -243 -29 -16 -81 -55 -114 -85 -79 -71 -162 -120
-274 -160 -104 -38 -101 -34 -151 -210 -44 -153 -44 -149 -9 -200 17 -25 31
-56 31 -70 0 -14 -15 -57 -34 -96 l-34 -71 -218 -6 c-121 -2 -242 -10 -271
-16 -84 -20 -87 -25 -85 -214 7 -583 58 -1320 103 -1490 5 -21 18 -102 29
-181 25 -191 64 -302 126 -358 43 -38 293 -85 579 -108 77 -7 143 -16 146 -22
4 -5 9 -44 13 -87 11 -120 55 -375 87 -499 36 -142 78 -242 138 -335 26 -40
66 -104 89 -143 72 -124 143 -168 334 -209 62 -13 132 -31 156 -39 40 -14 60
-13 260 9 252 29 371 48 462 74 36 11 89 24 117 31 131 30 159 103 247 640 66
408 81 527 101 785 28 378 18 554 -50 840 -15 61 -37 175 -50 255 -22 134 -89
360 -129 439 -20 38 -38 180 -28 216 5 20 16 31 30 33 29 4 53 -37 92 -155 31
-92 156 -351 198 -411 31 -43 91 -76 212 -117 106 -37 157 -43 193 -24 72 38
205 133 214 152 27 60 112 143 194 192 94 55 167 119 241 213 47 58 84 90 94
79 3 -2 6 -31 9 -63 2 -33 8 -117 14 -189 6 -71 11 -197 11 -280 1 -165 11
-213 50 -232 34 -17 300 -16 555 2 121 9 518 19 1010 25 1118 15 1573 29 2135
66 129 9 390 18 580 21 l344 6 30 29 29 29 -7 217 c-12 380 -24 680 -36 932
-18 352 -19 2493 -2 2735 7 99 17 412 22 695 10 491 13 579 41 975 13 190 6
977 -9 1058 -12 66 -38 96 -113 136 -58 30 -69 32 -119 26 -30 -3 -93 -10
-140 -16 -49 -5 -629 -9 -1385 -9 -2125 0 -3081 -22 -3131 -72 -9 -8 -20 -33
-24 -54 -13 -54 -12 -571 1 -673 7 -61 7 -110 -1 -176 -10 -71 -9 -177 4 -495
9 -223 19 -648 22 -945 3 -297 9 -952 14 -1455 5 -503 12 -940 16 -971 l6 -56
-45 -26 c-25 -15 -62 -46 -84 -70 -43 -50 -209 -357 -219 -406 -5 -23 0 -46
16 -81 29 -62 22 -90 -33 -130 -24 -17 -51 -44 -61 -60 -21 -36 -123 -123
-175 -150 -55 -28 -143 -60 -164 -60 -36 0 -78 32 -108 83 -17 29 -39 66 -49
83 -22 33 -67 244 -80 370 -13 121 -25 155 -90 252 -32 48 -71 118 -85 155
-47 116 -107 158 -250 176 -116 14 -241 56 -278 93 -16 15 -26 32 -22 38 10
16 73 28 184 35 179 11 240 57 259 196 8 54 28 118 61 197 27 64 54 135 61
157 35 112 128 231 207 267 23 10 74 22 114 27 56 7 79 16 108 39 75 60 105
137 77 194 -9 17 -16 37 -16 44 0 15 50 44 76 44 20 0 79 42 112 79 13 14 46
60 74 101 28 41 75 101 104 133 60 68 67 85 47 124 -8 15 -30 68 -49 118 -27
72 -43 99 -84 140 l-50 50 -90 -2 -89 -2 -64 59 c-73 67 -104 119 -88 149 14
26 33 31 132 41 171 16 278 112 308 275 25 137 1 219 -93 308 -33 33 -81 71
-106 85 -25 15 -80 50 -124 80 -80 55 -278 154 -331 166 -40 10 -65 34 -65 62
0 39 11 54 40 54 49 0 138 81 180 164 21 42 20 248 -1 296 -24 53 -93 128
-173 189 -89 68 -110 76 -230 96 -54 8 -116 25 -139 37 -35 18 -65 23 -173 28
-128 6 -132 7 -155 33 -13 16 -40 32 -59 37 -19 5 -61 18 -92 30 -57 20 -133
33 -275 45 l-72 7 -32 56 c-17 30 -61 86 -98 124 l-67 68 -137 0 c-124 0 -137
2 -137 18 1 9 7 28 15 42 21 36 18 107 -5 155 -38 78 -135 156 -212 170 -57
11 -64 26 -37 82 69 142 8 286 -138 329 -32 9 -79 23 -104 31 -26 7 -64 31
-89 54 -66 62 -119 74 -187 44z m55 -129 c15 -8 37 -25 50 -38 l22 -24 -57
-18 c-32 -10 -85 -35 -119 -57 -68 -44 -80 -47 -89 -20 -9 30 14 67 77 121 65
54 75 57 116 36z m317 -139 c35 -35 62 -104 52 -131 -23 -59 -157 49 -157 127
0 31 7 37 43 37 20 0 40 -11 62 -33z m-268 -123 c13 -34 -67 -70 -95 -42 -18
18 -15 26 16 42 36 20 71 20 79 0z m4773 -464 c173 -5 736 -14 1250 -21 824
-10 978 -9 1300 5 201 8 438 17 528 19 l162 4 8 -26 c12 -46 5 -1508 -13
-2346 -24 -1173 -31 -1752 -23 -2070 19 -829 29 -1139 43 -1320 8 -110 20
-320 26 -466 16 -381 41 -354 -341 -369 -151 -5 -444 -17 -650 -25 -206 -8
-710 -22 -1120 -30 -1148 -23 -1614 -35 -1755 -45 -248 -17 -621 -34 -636 -28
-12 5 -18 46 -27 219 -11 189 -27 365 -48 524 -5 41 -3 54 12 73 39 48 74 -1
74 -101 0 -168 28 -435 56 -536 l15 -53 347 5 c191 3 586 15 877 26 310 12
977 27 1605 36 591 8 1164 18 1273 22 l199 6 9 26 c14 35 14 105 0 496 -11
323 -21 500 -41 770 -4 66 -11 244 -15 395 -3 151 -15 399 -27 550 -18 248
-20 326 -14 785 4 281 11 681 16 890 16 630 40 1925 40 2172 l0 233 -27 17
c-24 16 -72 18 -497 24 -857 13 -3548 21 -3710 12 -150 -9 -160 -10 -178 -33
-17 -21 -18 -33 -11 -114 9 -107 8 -185 -8 -396 -13 -169 3 -1191 21 -1425 8
-96 34 -906 31 -965 -1 -8 -6 -242 -13 -520 -9 -382 -9 -583 0 -825 11 -295
10 -321 -5 -332 -23 -18 -68 -16 -83 2 -9 11 -14 267 -19 1103 -5 599 -10
1093 -13 1098 -3 5 -11 207 -18 449 -6 242 -19 532 -28 645 -12 155 -16 346
-17 784 -2 661 -10 605 93 625 67 13 222 30 307 34 142 7 755 5 1045 -3z
m-3815 -275 c39 -19 64 -60 47 -77 -8 -8 -21 -1 -52 29 -36 37 -50 63 -34 63
3 0 21 -7 39 -15z m4023 -138 c4 -19 -6 -21 -27 -8 -16 10 -5 34 12 28 7 -2
13 -11 15 -20z m-2773 -432 c28 -27 33 -71 11 -100 -19 -26 -38 -10 -61 50
-27 73 0 100 50 50z m176 -40 c12 -26 19 -64 19 -107 0 -64 -2 -70 -36 -108
-29 -32 -43 -40 -70 -40 -28 0 -34 4 -34 21 0 12 13 43 28 68 44 70 55 112 46
178 -7 55 -6 57 11 43 10 -8 26 -33 36 -55z m-413 -222 c5 -17 -26 -29 -40
-15 -6 6 -7 15 -3 22 9 14 37 9 43 -7z m242 -41 c0 -13 -12 -22 -22 -16 -10 6
-1 24 13 24 5 0 9 -4 9 -8z m-2815 -12 c3 -5 19 -69 36 -142 39 -174 63 -245
110 -326 46 -78 49 -108 14 -124 -32 -14 -61 5 -114 75 -92 121 -133 271 -113
406 13 91 46 145 67 111z m1552 -36 c5 -16 -43 -45 -61 -38 -19 7 -21 40 -3
48 20 8 60 2 64 -10z m153 -179 c0 -28 -25 -44 -42 -27 -15 15 1 52 23 52 14
0 19 -7 19 -25z m795 -26 c10 -15 -1 -23 -20 -15 -9 3 -13 10 -10 16 8 13 22
13 30 -1z m5802 -35 c-3 -3 -12 -4 -19 -1 -8 3 -5 6 6 6 11 1 17 -2 13 -5z
m-8432 -176 c71 -120 122 -185 174 -220 62 -42 101 -79 101 -96 0 -22 -87 -9
-150 23 -120 61 -198 176 -208 307 -4 62 -3 68 15 68 13 0 33 -24 68 -82z
m899 46 c18 -7 12 -24 -10 -24 -8 0 -14 7 -14 15 0 17 2 18 24 9z m6141 -24
c0 -8 -10 -16 -22 -18 -22 -3 -32 16 -16 32 12 11 38 2 38 -14z m-6263 -70 c2
-19 -1 -25 -17 -25 -23 0 -32 30 -14 51 15 18 26 8 31 -26z m1714 -31 c10 -12
46 -40 79 -62 33 -22 70 -49 82 -60 32 -28 63 -24 132 18 37 23 78 39 105 42
39 5 46 2 60 -19 23 -35 14 -49 -50 -82 -62 -33 -94 -67 -94 -103 0 -37 27
-39 73 -6 81 58 137 77 152 52 6 -9 -25 -42 -127 -135 -48 -43 -83 -155 -97
-309 -22 -229 -21 -223 -46 -244 -14 -10 -54 -26 -91 -35 -37 -9 -80 -24 -96
-32 -16 -8 -33 -12 -37 -9 -5 3 -3 29 5 58 23 88 17 124 -29 175 -45 49 -84
10 -112 -110 -24 -106 -21 -134 20 -172 43 -41 44 -68 6 -107 -54 -54 -121
-38 -371 85 -247 122 -421 227 -475 287 -34 38 -45 72 -25 84 13 8 60 -17 85
-45 31 -35 94 -60 152 -60 82 0 156 33 227 102 43 42 74 63 105 71 35 10 52
22 82 63 42 58 82 93 144 130 l44 25 61 -35 c76 -45 111 -46 151 -6 32 31 37
78 9 72 -74 -18 -77 -17 -133 41 -78 82 -124 87 -197 21 -50 -45 -70 -40 -70
16 0 35 6 47 38 76 21 19 59 41 88 49 28 9 59 22 70 30 19 14 19 15 -3 32 -33
27 -34 72 -3 103 26 26 62 25 86 -1z m904 -29 c0 -5 -2 -10 -4 -10 -3 0 -8 5
-11 10 -3 6 -1 10 4 10 6 0 11 -4 11 -10z m124 -107 c62 -67 63 -75 14 -121
-34 -31 -82 -44 -104 -27 -16 11 -16 17 -6 39 7 15 12 57 12 95 0 64 5 85 20
79 4 -2 33 -31 64 -65z m1037 -186 c-7 -7 -15 -6 -25 3 -22 17 -9 32 16 19 14
-8 17 -14 9 -22z m3310 -57 c24 -14 25 -46 0 -53 -28 -7 -81 22 -81 44 0 15 7
19 31 19 17 0 39 -5 50 -10z m-4731 -21 c67 -38 75 -63 74 -234 0 -176 -18
-262 -70 -342 -31 -48 -43 -83 -28 -83 3 0 28 23 54 51 31 33 54 50 66 47 36
-6 28 -46 -26 -128 -28 -43 -59 -100 -70 -126 -10 -27 -24 -49 -31 -49 -8 0
-33 38 -56 85 -30 63 -56 98 -96 135 -79 72 -82 80 -80 230 1 158 25 304 58
361 42 72 131 95 205 53z m417 -23 c-5 -14 -57 -21 -57 -7 0 14 31 30 47 24 8
-3 12 -11 10 -17z m-2599 -128 c2 -9 -8 -24 -23 -34 -26 -17 -27 -16 -52 8
-33 34 -22 50 30 46 30 -2 43 -8 45 -20z m988 -20 c4 -6 -4 -21 -19 -34 -28
-24 -103 -38 -172 -32 l-40 4 75 36 c76 37 143 48 156 26z m1379 -299 c41 -37
47 -69 11 -69 -43 0 -99 61 -81 90 11 18 33 11 70 -21z m-845 -43 c0 -27 -15
-42 -25 -26 -8 13 3 50 16 50 5 0 9 -11 9 -24z m-1255 4 c3 -6 -1 -13 -10 -16
-19 -8 -30 0 -20 15 8 14 22 14 30 1z m512 -65 c20 -8 68 -40 108 -70 43 -33
116 -75 183 -104 61 -27 123 -58 139 -68 15 -11 50 -30 78 -42 58 -26 81 -45
102 -85 15 -28 14 -31 -7 -48 -12 -10 -37 -18 -55 -18 l-32 0 -7 -112 c-13
-205 -43 -337 -113 -488 -51 -110 -52 -110 -101 -51 -24 28 -52 51 -62 51 -30
0 -70 42 -79 81 -12 51 50 345 101 481 41 110 44 141 17 146 -21 4 -59 -81
-94 -208 -15 -52 -36 -123 -46 -157 -11 -34 -25 -123 -32 -200 l-12 -138 -32
-3 c-46 -5 -78 29 -67 71 4 18 8 78 9 133 l1 102 47 53 c47 54 77 120 77 171
0 16 -16 60 -35 98 -30 59 -35 80 -35 137 0 73 -12 106 -73 207 -32 51 -38 76
-21 76 3 0 21 -7 41 -15z m1881 -11 c20 -13 22 -22 22 -92 0 -42 -5 -97 -11
-122 -28 -123 -124 -254 -223 -306 -74 -39 -83 -27 -45 58 48 109 62 228 39
336 -14 62 -2 95 42 118 67 35 128 38 176 8z m-799 -76 c57 -59 81 -203 39
-245 -14 -13 -20 -9 -54 32 -73 88 -81 95 -116 94 -71 -1 -101 -20 -133 -84
-25 -49 -35 -61 -58 -63 -26 -3 -27 -1 -21 25 4 15 25 63 46 106 56 107 132
166 219 167 39 0 51 -5 78 -32z m-2119 -89 c0 -15 12 -75 26 -134 30 -125 29
-159 -4 -163 -56 -8 -132 77 -132 147 0 57 31 160 57 188 25 26 26 26 39 8 8
-10 14 -31 14 -46z m2638 -29 c33 -64 -16 -262 -72 -288 -50 -23 -72 33 -55
140 23 142 89 220 127 148z m-323 -71 c8 -15 12 -35 9 -43 -8 -21 -50 -21 -58
0 -8 20 -8 69 0 77 11 11 35 -5 49 -34z m-309 -18 c44 -27 126 -127 122 -148
-6 -31 -33 -25 -89 17 -66 50 -95 59 -113 35 -19 -27 -46 -12 -46 25 0 77 61
111 126 71z m-1396 -155 c0 -16 -27 -29 -41 -20 -13 8 9 34 27 34 8 0 14 -6
14 -14z m1240 -21 c21 -23 31 -25 102 -25 70 0 82 -3 103 -25 14 -13 25 -32
25 -42 -1 -35 -37 -98 -78 -135 -36 -32 -49 -38 -88 -38 -65 0 -102 23 -126
78 -25 56 -35 160 -19 190 16 29 52 28 81 -3z m-826 -27 c27 -38 20 -86 -16
-119 -44 -42 -62 -35 -66 26 -2 36 3 59 18 83 23 38 43 41 64 10z m1366 2 c22
-6 67 -40 122 -93 136 -131 154 -177 97 -242 -35 -40 -79 -55 -127 -44 -42 9
-72 36 -130 119 -25 36 -65 91 -89 122 -24 31 -43 65 -43 76 0 25 27 48 70 60
47 13 59 14 100 2z m-724 -89 c17 -106 91 -217 169 -252 111 -51 198 -8 290
143 26 42 57 47 90 14 44 -44 26 -130 -38 -179 -50 -38 -152 -86 -219 -103
-117 -30 -188 -7 -301 96 l-68 63 6 71 c7 80 24 187 32 199 9 15 33 -15 39
-52z m2078 -60 c7 -11 -22 -23 -35 -15 -5 3 -7 10 -4 15 8 12 32 12 39 0z
m-3413 -143 c16 -18 32 -41 35 -51 6 -20 -21 -57 -42 -57 -21 0 -43 42 -50 93
-6 40 -4 47 10 47 10 0 30 -15 47 -32z m177 -6 c5 -17 -27 -27 -41 -13 -9 9
-8 14 3 21 18 11 32 8 38 -8z m482 -109 c-26 -91 -25 -126 5 -155 43 -43 86
-53 166 -38 60 11 71 11 93 -3 31 -21 50 -78 42 -125 -16 -91 -15 -95 37 -120
57 -27 67 -48 67 -138 0 -140 -65 -175 -260 -140 -186 34 -220 58 -241 176 -7
41 -13 143 -14 225 0 134 3 161 28 254 16 57 33 114 40 128 l11 24 20 -20 c19
-19 19 -24 6 -68z m1338 -1 c3 -40 0 -46 -66 -115 -81 -85 -99 -118 -137 -242
-26 -85 -51 -141 -96 -212 -12 -19 -23 -61 -28 -107 -5 -42 -15 -84 -22 -93
-26 -31 -100 -55 -183 -60 -69 -5 -84 -3 -103 13 -26 22 -166 420 -161 457 5
35 39 24 78 -25 19 -24 54 -63 77 -87 l43 -43 63 4 c97 6 237 82 237 129 0 29
-26 34 -62 10 -69 -44 -134 -71 -172 -71 -36 0 -46 6 -107 70 -37 39 -76 70
-86 71 -83 5 -124 -12 -152 -62 -25 -44 -42 -48 -71 -19 -31 31 -27 94 6 117
74 52 94 76 113 136 11 36 27 67 39 75 19 13 24 11 45 -12 14 -14 37 -61 52
-104 49 -141 92 -175 205 -162 126 14 239 98 328 244 52 85 110 140 142 134
10 -2 16 -18 18 -46z m2302 -3 c0 -11 -4 -17 -10 -14 -5 3 -10 15 -10 26 0 11
5 17 10 14 6 -3 10 -15 10 -26z m-3906 -55 c25 -10 19 -48 -11 -75 -89 -82
-206 -103 -245 -45 -29 42 9 71 119 90 45 8 90 19 100 25 22 13 18 12 37 5z
m1336 -49 c16 -20 6 -45 -35 -85 -29 -28 -37 -31 -50 -20 -31 25 -16 70 35
104 30 20 34 20 50 1z m-305 -25 c20 -22 14 -67 -10 -77 -29 -11 -71 68 -48
90 12 13 40 7 58 -13z m143 -12 c32 -32 -5 -128 -48 -128 -38 0 -48 66 -18
123 10 20 48 23 66 5z m2632 -234 c0 -40 -67 -134 -211 -295 -71 -80 -206
-263 -233 -317 -27 -53 -17 -63 58 -60 111 5 103 -26 -21 -84 -160 -73 -213
-128 -213 -219 0 -37 5 -47 45 -83 29 -27 45 -50 45 -65 0 -21 -31 -57 -101
-115 -25 -21 -24 -55 3 -111 21 -43 21 -46 5 -77 -10 -18 -33 -53 -53 -78 -34
-42 -36 -48 -31 -100 7 -67 38 -100 93 -100 30 0 45 -9 93 -58 69 -69 100
-120 79 -133 -37 -24 -76 -5 -147 72 -74 82 -92 87 -191 55 -45 -14 -97 -26
-116 -26 -53 0 -104 -26 -164 -84 -76 -73 -98 -86 -147 -86 -79 0 -199 64
-229 122 -24 46 -14 138 22 210 l28 58 -17 88 c-25 129 -22 169 13 233 16 30
51 95 77 144 48 91 146 205 177 205 47 0 181 55 257 106 91 60 131 68 137 27
7 -52 -115 -159 -213 -188 -79 -23 -115 -58 -119 -118 -3 -40 -12 -59 -62
-122 -79 -102 -106 -149 -107 -192 -2 -71 76 -83 139 -22 49 47 65 35 57 -41
-5 -51 -3 -60 10 -60 40 0 49 29 62 190 6 78 22 118 102 255 27 45 59 83 91
108 74 55 104 106 114 185 6 52 12 70 29 82 59 41 145 132 198 209 32 47 103
133 156 191 53 58 126 143 162 190 90 115 123 144 123 104z m2353 -79 c-4 -15
-36 -12 -41 3 -3 9 3 13 19 10 13 -1 23 -7 22 -13z m348 -8 c-13 -13 -26 -3
-16 12 3 6 11 8 17 5 6 -4 6 -10 -1 -17z m-5675 -186 c8 -31 26 -85 39 -121
34 -95 38 -119 21 -126 -18 -7 -68 21 -85 48 -12 19 -41 190 -41 244 0 17 3
34 7 37 14 14 44 -29 59 -82z m-651 -111 c80 -63 225 -94 415 -88 l105 3 3
-42 c3 -47 -19 -99 -45 -106 -55 -16 -139 -17 -225 -3 -224 36 -304 86 -321
199 -11 73 9 84 68 37z m-133 -270 c4 -52 12 -228 18 -390 7 -162 14 -347 17
-410 5 -107 4 -116 -15 -133 -11 -11 -36 -20 -54 -20 -31 -2 -33 0 -39 43 -10
68 -23 859 -15 912 8 53 40 101 65 96 13 -3 17 -22 23 -98z m6256 8 c2 -9 -5
-19 -17 -23 -28 -9 -40 1 -34 26 7 24 46 23 51 -3z m-5403 -32 c15 -19 30 -57
35 -88 11 -60 36 -775 28 -784 -10 -9 -86 27 -94 44 -4 9 -13 114 -19 232 -7
118 -18 297 -26 396 -12 168 -11 184 4 208 23 35 41 33 72 -8z m-643 -29 l25
-23 6 -274 c10 -385 9 -548 -3 -571 -13 -23 -62 -26 -83 -5 -10 10 -17 72 -26
232 -16 284 -26 628 -18 648 10 25 69 21 99 -7z m426 -14 c19 -17 20 -34 26
-419 5 -380 5 -402 -13 -418 -23 -21 -46 -12 -59 22 -6 16 -13 183 -15 394 -4
248 -9 373 -17 388 -23 44 36 69 78 33z m-209 -31 c21 -17 22 -25 27 -287 3
-149 9 -319 13 -379 6 -63 6 -119 0 -133 -11 -29 -51 -31 -77 -5 -17 17 -20
45 -26 293 -4 151 -12 323 -18 382 -10 98 -9 109 7 127 22 25 46 25 74 2z
m3481 -22 c0 -5 -5 -12 -11 -16 -14 -8 -33 11 -25 25 7 11 36 4 36 -9z m-4132
-2 c21 -28 42 -716 23 -803 -8 -37 -46 -45 -80 -17 -23 18 -23 23 -32 303 -13
451 -12 472 12 503 22 28 60 34 77 14z m1305 -36 c16 -18 21 -145 33 -742 7
-301 6 -305 -14 -324 -12 -10 -27 -16 -35 -13 -19 7 -27 120 -27 377 0 237
-15 513 -31 585 -22 104 -22 112 1 128 24 17 52 13 73 -11z m176 -23 c56 -20
60 -42 46 -229 -7 -91 -13 -166 -14 -167 -1 -2 -7 -3 -15 -3 -13 0 -30 45 -50
131 -4 20 -36 234 -36 245 0 3 31 34 34 34 2 0 17 -5 35 -11z m2281 -28 c0 -6
-4 -13 -10 -16 -5 -3 -10 1 -10 9 0 9 5 16 10 16 6 0 10 -4 10 -9z m-3964
-361 c6 -157 17 -316 23 -354 11 -64 10 -72 -11 -114 -27 -54 -51 -73 -70 -54
-10 10 -14 100 -16 389 -3 331 -1 378 13 400 9 13 24 23 33 21 15 -3 18 -34
28 -288z m-216 180 c13 -8 16 -73 23 -432 5 -233 9 -457 10 -498 2 -61 -2 -84
-21 -122 -25 -51 -49 -62 -56 -25 -3 12 -7 150 -10 307 -3 157 -9 390 -12 517
-5 180 -4 236 6 248 14 17 38 19 60 5z m7628 -58 c2 -7 -3 -12 -12 -12 -9 0
-16 7 -16 16 0 17 22 14 28 -4z m-483 -42 c-8 -13 -45 -19 -52 -8 -10 17 28
40 44 27 7 -6 11 -15 8 -19z m-5054 -21 c4 -19 12 -86 18 -149 6 -63 16 -133
21 -155 9 -35 28 -320 46 -700 6 -124 -2 -175 -30 -175 -17 0 -43 54 -56 117
-20 97 -54 1042 -39 1081 12 32 32 23 40 -19z m4508 -98 c7 -5 10 -14 6 -20
-5 -9 -10 -9 -21 0 -26 22 -14 38 15 20z m-6774 -51 c-3 -6 -10 -10 -16 -10
-10 0 -12 33 -2 44 9 9 26 -22 18 -34z m2125 -306 c13 -32 13 -214 0 -234 -8
-13 -12 -13 -27 3 -30 29 -23 257 7 257 6 0 15 -12 20 -26z m-463 -324 c-3
-198 -8 -305 -16 -325 -10 -23 -14 -27 -21 -15 -17 32 -30 191 -29 359 1 218
9 289 34 308 17 12 20 11 28 -9 5 -13 7 -156 4 -318z m-1660 308 c4 -7 10
-193 14 -413 4 -220 12 -512 19 -649 15 -306 11 -349 -37 -393 -35 -33 -78
-51 -91 -38 -4 4 -7 307 -6 673 0 596 2 674 18 732 22 85 59 125 83 88z m1534
-44 c9 -11 13 -41 11 -98 -3 -121 -18 -148 -45 -83 -20 47 -42 61 -101 62
l-51 0 -3 38 c-5 65 34 95 124 96 36 1 56 -4 65 -15z m-263 -58 c4 -56 -12
-55 -27 1 -11 39 -6 56 12 50 7 -2 13 -25 15 -51z m-1468 -1 c0 -19 -13 -63
-30 -97 -16 -35 -39 -103 -52 -153 -27 -107 -44 -129 -148 -188 -115 -65 -116
-67 -124 -312 -9 -249 -10 -246 108 -312 44 -24 87 -53 95 -65 9 -12 56 -94
104 -182 112 -203 217 -372 269 -430 34 -40 45 -46 79 -46 75 0 101 -19 174
-131 67 -102 125 -212 125 -236 0 -44 -749 49 -843 105 l-32 18 0 145 c-1 112
-6 163 -22 229 -11 47 -24 110 -28 140 -3 30 -13 78 -20 105 -19 70 -63 358
-75 495 -5 63 -10 172 -10 241 0 143 14 207 63 280 41 60 118 175 175 261 66
100 132 168 165 168 24 0 27 -4 27 -35z m913 15 c14 -12 52 -58 84 -104 32
-46 85 -105 118 -133 82 -68 181 -176 205 -223 17 -33 20 -59 20 -162 0 -172
-20 -516 -47 -834 -5 -58 27 -259 63 -402 34 -131 67 -211 127 -310 27 -45 47
-86 43 -89 -13 -13 -143 -15 -179 -4 -42 14 -60 39 -93 129 -14 37 -50 117
-80 179 -30 61 -54 123 -54 137 0 17 19 50 55 93 59 72 75 111 75 185 0 85
-40 148 -93 148 -24 0 -45 -14 -98 -65 -71 -69 -90 -75 -139 -50 -16 8 -53 20
-82 26 -76 16 -106 35 -123 76 -8 19 -37 65 -64 102 -27 36 -54 86 -61 111
-22 81 -68 154 -152 244 -34 36 -35 69 -3 121 31 51 31 75 0 109 -28 31 -31
56 -11 112 7 22 16 60 20 87 11 75 52 182 108 286 28 53 62 116 74 141 13 25
32 54 43 64 52 47 197 63 244 26z m2299 -47 c8 -10 20 -37 26 -60 20 -68 71
-134 132 -170 106 -62 114 -72 89 -126 -16 -36 -127 -129 -153 -129 -35 0
-135 53 -166 89 -59 66 -95 267 -61 333 38 72 100 101 133 63z m-1745 -69 c-9
-9 -28 6 -21 18 4 6 10 6 17 -1 6 -6 8 -13 4 -17z m159 -129 c-3 -27 -10 -84
-16 -125 -37 -267 -29 -806 15 -1038 30 -162 50 -381 41 -455 -8 -58 -28 -89
-47 -70 -30 30 -106 434 -120 643 -11 149 -7 409 11 770 13 245 24 315 58 349
l25 25 20 -25 c16 -19 18 -33 13 -74z m1068 54 c-9 -15 -34 -10 -41 7 -9 23
19 38 34 17 7 -9 10 -20 7 -24z m2216 1 c0 -5 -9 -10 -21 -10 -11 0 -17 5 -14
10 3 6 13 10 21 10 8 0 14 -4 14 -10z m-1996 -32 c2 -13 12 -106 21 -208 9
-102 23 -216 31 -253 26 -128 18 -187 -26 -187 -30 0 -38 22 -49 140 -12 126
-15 513 -4 523 12 13 23 7 27 -15z m-1181 -270 c11 -289 5 -984 -9 -998 -25
-25 -36 21 -50 207 -26 364 -27 490 -5 756 11 136 23 252 27 258 19 31 28 -26
37 -223z m362 197 c54 -53 13 -125 -71 -125 -54 0 -94 28 -94 65 0 69 115 111
165 60z m-635 -24 c0 -40 -13 -61 -25 -41 -9 15 4 80 15 80 6 0 10 -18 10 -39z
m-1110 -151 c8 -15 7 -25 -3 -40 -8 -11 -17 -17 -20 -13 -9 8 -9 58 0 66 9 10
11 9 23 -13z m-382 -18 c18 -12 5 -622 -13 -622 -43 0 -65 98 -72 316 -6 199
-3 233 27 282 20 32 34 38 58 24z m2132 -40 c19 -20 37 -59 59 -128 77 -251
83 -311 40 -350 -66 -59 -107 -182 -89 -267 17 -85 41 -114 125 -152 67 -31
75 -37 84 -72 14 -47 14 -396 1 -441 -5 -19 -32 -56 -63 -85 -70 -68 -92 -129
-83 -231 8 -85 35 -145 76 -169 27 -17 30 -23 30 -70 0 -60 -35 -366 -51 -447
-15 -77 -73 -193 -111 -225 -67 -55 -88 -93 -88 -159 0 -105 -40 -146 -141
-146 l-51 0 7 89 7 88 -38 42 c-85 94 -185 104 -297 30 -62 -41 -99 -104 -109
-188 -4 -36 -10 -72 -13 -78 -6 -18 -101 -15 -200 5 l-80 17 -6 91 c-4 74 -11
100 -32 137 -52 87 -136 136 -244 142 -44 2 -74 9 -92 22 -38 27 -70 99 -73
163 l-3 55 60 0 c67 1 91 9 152 54 62 45 103 122 103 193 0 52 -3 62 -36 97
-19 22 -68 57 -109 77 l-73 38 -54 -17 c-71 -22 -84 -21 -102 5 -26 37 -20 83
15 112 33 28 62 32 95 13 83 -48 134 -69 239 -96 72 -19 140 -44 170 -62 89
-55 137 -48 188 29 44 65 97 54 157 -34 33 -47 98 -84 149 -84 44 0 79 20 132
77 66 70 88 137 103 313 17 197 30 219 112 194 96 -29 160 7 213 122 38 79 27
136 -38 207 -42 46 -84 64 -215 92 l-28 6 7 237 c4 130 11 242 16 248 6 7 26
15 47 19 62 12 92 33 114 82 15 35 18 55 13 96 -10 73 -24 95 -104 167 -61 53
-71 67 -71 95 0 48 37 75 102 75 41 0 54 -5 78 -28z m1046 -86 c15 -66 -5
-126 -41 -126 -31 0 -44 91 -24 164 l11 38 23 -22 c13 -12 27 -37 31 -54z
m-416 49 c39 -20 50 -43 50 -107 0 -29 5 -88 12 -131 14 -95 6 -109 -46 -84
-56 26 -67 54 -79 187 -8 94 -8 122 3 135 16 19 24 19 60 0z m-2928 -61 c4
-16 3 -54 -3 -86 -18 -90 -39 -72 -39 32 0 65 7 93 23 87 6 -2 14 -17 19 -33z
m1648 -61 c0 -73 -10 -133 -21 -133 -10 0 -12 173 -2 183 16 17 23 3 23 -50z
m-1651 -141 c5 -9 12 -34 16 -54 6 -30 3 -40 -16 -59 -21 -21 -23 -21 -36 -4
-14 20 -17 74 -7 113 8 26 30 29 43 4z m2035 -149 c2 -16 1 -48 -3 -73 l-7
-45 -12 40 c-13 45 -15 66 -6 89 9 24 22 19 28 -11z m-1377 -123 c30 -44 29
-85 -2 -116 -32 -32 -74 -29 -93 6 -12 24 -9 130 5 167 8 20 62 -14 90 -57z
m100 -202 c52 -57 56 -107 14 -165 -78 -108 -245 -237 -279 -217 -10 6 -41 46
-70 90 l-53 79 28 23 c15 13 86 66 157 118 139 101 167 111 203 72z m870 -121
c14 -31 49 -209 63 -317 23 -188 48 -248 144 -344 76 -76 100 -110 92 -131
-16 -44 -126 15 -180 97 -40 59 -107 243 -130 355 -29 135 -33 363 -7 363 4 0
13 -11 18 -23z m-272 -158 c0 -51 -4 -61 -45 -113 -78 -99 -83 -110 -69 -153
6 -21 50 -123 97 -227 91 -202 111 -277 77 -290 -34 -12 -54 5 -124 108 -66
97 -120 156 -142 156 -19 0 -49 -21 -49 -34 0 -7 18 -38 41 -69 22 -32 37 -62
34 -67 -10 -15 -64 -12 -130 9 -81 25 -123 74 -216 251 -59 113 -83 149 -119
178 -94 75 -101 101 -36 152 24 19 71 59 105 88 70 59 89 62 169 32 29 -11 64
-20 78 -20 15 0 62 -10 105 -21 94 -26 123 -19 164 43 38 57 60 49 60 -23z
m587 -445 c-4 -34 -16 -49 -31 -40 -14 9 -14 32 0 57 15 29 35 18 31 -17z"/>
<path d="M2433 9558 c-69 -87 -57 -251 26 -339 64 -66 108 -41 52 29 -44 56
-51 82 -52 190 0 108 -8 143 -26 120z"/>
<path d="M3225 9516 c-26 -40 -57 -165 -51 -202 7 -32 55 -84 79 -84 15 0 97
152 97 180 0 30 -36 96 -62 114 -31 22 -45 20 -63 -8z m35 -135 c0 -10 -7 -24
-15 -31 -20 -17 -31 10 -15 39 12 24 30 19 30 -8z"/>
<path d="M2404 8916 c-29 -20 -106 -175 -139 -276 -31 -95 -40 -219 -17 -242
21 -21 39 11 51 96 13 92 66 257 110 345 43 84 41 109 -5 77z"/>
<path d="M2585 3726 c-99 -44 -142 -206 -84 -320 37 -74 66 -91 153 -91 97 0
161 31 194 95 27 55 30 162 4 230 -14 38 -25 49 -71 73 -61 30 -144 36 -196
13z"/>
<path d="M1918 3603 c-70 -66 -88 -108 -88 -214 0 -75 4 -94 28 -139 33 -64
75 -90 148 -90 75 0 108 15 157 73 114 134 118 222 14 334 -52 57 -104 83
-162 83 -41 0 -51 -5 -97 -47z m182 -188 c0 -8 -9 -15 -20 -15 -20 0 -26 11
-13 23 12 13 33 7 33 -8z"/>
<path d="M7420 5090 c-77 -9 -176 -43 -305 -104 -185 -87 -269 -163 -391 -352
-47 -73 -92 -135 -100 -138 -9 -3 -38 16 -75 50 -38 35 -66 53 -76 50 -8 -3
-16 -6 -18 -6 -10 0 -44 -71 -49 -105 -15 -86 -26 -104 -84 -142 -32 -19 -83
-58 -115 -84 -52 -43 -64 -49 -106 -49 -26 0 -89 11 -142 25 -160 41 -279 57
-339 44 -47 -10 -61 -21 -165 -124 -111 -110 -114 -115 -135 -186 -12 -41 -30
-101 -41 -134 -42 -122 -51 -170 -46 -223 8 -79 40 -135 106 -187 66 -52 81
-78 81 -138 0 -121 39 -246 106 -340 24 -34 83 -120 133 -192 49 -71 123 -167
164 -213 42 -45 89 -106 105 -135 57 -100 111 -134 256 -163 86 -17 118 -43
114 -93 -4 -52 -52 -81 -133 -81 -49 0 -66 -4 -80 -20 -23 -25 -14 -78 20
-110 28 -27 119 -38 312 -39 110 -1 163 -13 163 -36 0 -30 -107 -47 -375 -61
-72 -4 -138 -11 -147 -16 -46 -23 -3 -111 76 -154 39 -22 56 -25 92 -20 24 3
64 9 88 12 111 16 130 -15 120 -199 -8 -153 6 -224 58 -289 37 -47 48 -86 48
-166 0 -88 -17 -116 -85 -141 -31 -12 -59 -21 -62 -21 -17 0 -300 -108 -378
-145 -155 -73 -247 -159 -261 -245 l-6 -37 -177 -6 c-274 -10 -1744 -28 -1750
-22 -3 3 0 14 7 23 7 9 20 32 29 49 16 31 16 35 -1 69 -19 41 -117 155 -221
259 -81 79 -197 152 -342 214 -84 36 -114 56 -211 140 -63 54 -148 118 -190
142 -150 84 -204 146 -229 263 -25 120 -15 178 35 197 52 20 289 68 368 74 76
6 85 10 130 47 27 23 73 59 102 80 59 44 88 95 77 137 -4 14 -36 57 -73 96
-56 59 -76 90 -121 190 -60 132 -124 232 -168 260 -42 28 -113 23 -205 -14
-197 -79 -711 -92 -963 -25 -190 51 -183 50 -213 27 -28 -21 -36 -33 -77 -123
-56 -121 -164 -311 -241 -421 -68 -99 -76 -127 -44 -159 33 -33 68 -34 215
-12 251 39 261 35 252 -89 -6 -79 -37 -220 -71 -320 -9 -27 -28 -54 -48 -69
-73 -56 -131 -117 -155 -164 -36 -71 -29 -144 22 -246 51 -102 63 -138 75
-235 11 -85 3 -194 -22 -332 l-11 -63 -456 0 c-251 0 -551 5 -668 11 -238 13
-353 4 -387 -30 -17 -17 -17 -24 -6 -71 8 -34 10 -80 6 -130 l-6 -77 1087 -7
c599 -3 1716 -11 2483 -16 2942 -21 5389 -30 5459 -19 64 9 77 31 86 136 3 48
13 113 21 144 19 79 18 96 -12 126 l-26 26 -192 -6 c-105 -4 -225 -12 -266
-18 -49 -8 -225 -13 -500 -13 l-425 -1 0 77 c0 74 -1 78 -35 113 -29 31 -148
97 -212 118 -26 9 -33 53 -20 142 7 45 12 96 12 114 0 46 24 82 82 121 90 62
88 55 81 274 -3 106 -3 204 0 217 5 20 24 33 84 59 170 74 286 165 299 235 12
67 -14 145 -64 193 -37 34 -79 50 -158 61 -89 13 -109 33 -118 114 -3 35 -16
96 -27 137 -27 95 -26 116 5 179 30 57 33 93 11 111 -10 8 -16 29 -16 54 1 23
-2 60 -5 82 -10 74 37 131 144 173 78 31 123 39 278 51 186 15 310 42 403 87
138 68 334 288 391 441 32 83 43 161 44 307 1 110 -3 143 -23 210 -38 129 -77
221 -164 379 -74 136 -81 154 -81 205 0 31 8 76 18 101 13 35 15 52 7 73 -13
33 -26 34 -73 2 -69 -46 -102 -28 -91 51 5 41 15 58 65 111 72 77 76 98 16 89
-102 -16 -222 -109 -248 -194 -7 -20 -19 -42 -27 -49 -24 -19 -76 8 -149 76
-79 75 -200 136 -304 155 -92 17 -342 26 -430 16z m384 -96 c86 -17 240 -91
283 -136 40 -42 129 -245 149 -339 12 -56 12 -78 3 -110 -16 -50 -68 -112
-126 -145 -88 -52 -251 -42 -398 23 -137 61 -247 86 -303 71 -82 -23 -113 -66
-132 -183 -6 -39 -22 -90 -36 -115 -24 -42 -24 -45 -7 -58 10 -7 36 -18 58
-24 57 -16 63 -23 81 -90 13 -44 26 -66 53 -88 50 -42 65 -39 82 17 18 59 62
93 123 93 51 0 66 -13 66 -60 0 -51 -30 -76 -114 -95 -139 -32 -156 -55 -156
-204 0 -97 -1 -100 -27 -121 -47 -36 -121 -12 -144 47 -4 12 -20 25 -34 29
-70 17 -76 -40 -11 -102 60 -57 137 -83 195 -65 48 14 88 66 98 125 l6 38 66
-6 c163 -14 287 -16 321 -4 71 26 130 144 130 257 0 93 -41 212 -86 253 -52
46 -206 96 -359 115 l-60 8 3 33 c3 25 -1 32 -15 33 -36 2 -59 -3 -91 -23 -47
-29 -66 -18 -59 35 7 49 44 87 85 87 27 0 150 -41 287 -95 93 -37 243 -46 330
-20 118 34 215 123 251 229 16 48 16 86 -2 231 -6 47 -4 51 19 64 30 16 44 47
50 113 8 82 46 100 47 23 0 -16 25 -78 54 -138 30 -59 62 -131 72 -160 9 -28
49 -115 90 -192 88 -170 145 -318 154 -405 10 -93 -6 -290 -30 -356 -52 -149
-197 -308 -346 -380 -97 -46 -190 -69 -374 -89 -220 -25 -356 -64 -422 -123
-24 -21 -23 -1 2 48 26 51 25 60 -4 60 -27 0 -56 -33 -56 -62 0 -10 -11 -24
-25 -30 -21 -9 -29 -9 -42 5 -15 15 -14 19 12 57 23 33 27 45 18 58 -18 27
-106 18 -180 -18 -113 -56 -170 -144 -223 -347 l-11 -43 -90 0 c-151 0 -186
27 -175 134 11 107 23 181 30 197 4 9 34 38 67 63 61 47 70 65 44 86 -15 12
-13 13 -142 -34 -39 -15 -48 -14 -130 7 -159 40 -332 153 -463 302 -97 110
-124 204 -118 400 5 138 18 177 100 278 91 114 160 146 336 154 129 7 140 13
121 67 -19 52 0 102 87 231 117 175 125 181 212 170 113 -14 173 -59 158 -118
-12 -48 -108 -177 -177 -239 -73 -65 -82 -83 -49 -93 29 -9 109 44 171 114 92
103 143 249 106 305 -9 13 -50 40 -92 60 -41 20 -75 39 -75 43 1 30 51 54 96
46 34 -7 163 -118 195 -169 37 -60 15 -107 -120 -259 -69 -77 -79 -105 -31
-90 12 4 58 41 101 82 96 92 129 152 129 235 0 82 -26 127 -100 178 -37 25
-60 48 -60 59 0 31 101 66 245 85 51 7 237 -5 309 -20z m-1236 -554 c53 -33
28 -59 -42 -46 -31 6 -63 45 -49 60 13 12 59 5 91 -14z m-832 -261 c57 -15 56
-27 -2 -31 -52 -3 -70 -21 -61 -59 4 -14 48 -70 100 -126 52 -55 100 -115 107
-133 12 -30 10 -37 -40 -134 l-53 -103 15 -39 c15 -38 22 -91 19 -146 -3 -67
-90 -118 -200 -118 -62 0 -92 23 -131 101 -22 42 -46 70 -86 100 -105 80 -116
146 -49 286 27 57 39 96 42 143 6 81 17 97 95 154 35 24 69 54 76 66 15 24 65
49 100 50 13 0 43 -5 68 -11z m160 -31 c4 -6 1 -14 -6 -18 -16 -10 -62 2 -67
17 -8 22 60 22 73 1z m182 -49 c-2 -6 -8 -10 -13 -10 -5 0 -11 4 -13 10 -2 6
4 11 13 11 9 0 15 -5 13 -11z m1582 -54 c17 -9 30 -19 30 -23 0 -4 -36 -15
-80 -25 -73 -16 -85 -23 -125 -65 -24 -25 -48 -43 -51 -39 -10 10 23 112 41
127 45 37 138 49 185 25z m-1645 -38 c38 -18 55 -40 55 -69 0 -32 -22 -92 -38
-102 -13 -8 -84 50 -117 93 -32 44 -33 79 -2 90 24 10 70 4 102 -12z m1843
-41 c47 -26 90 -112 97 -196 4 -40 -1 -73 -18 -125 l-23 -70 -114 0 c-126 0
-285 21 -300 40 -16 20 -1 44 41 65 46 24 82 25 139 5 39 -14 45 -14 61 1 41
37 60 149 38 225 -7 20 -9 45 -6 53 8 19 53 20 85 2z m-1794 -318 c8 -13 19
-42 25 -66 27 -125 230 -316 451 -427 60 -30 132 -58 165 -64 60 -11 103 -40
91 -60 -4 -6 -40 -35 -79 -65 -40 -30 -116 -95 -169 -145 -54 -50 -109 -93
-122 -97 -30 -7 -48 5 -191 122 -153 125 -204 197 -220 307 -3 27 -29 94 -56
150 -43 87 -49 108 -49 161 0 71 23 127 69 174 38 38 65 41 85 10z m-182 -399
c52 -28 77 -169 41 -231 -41 -72 -178 -96 -276 -49 -77 37 -111 89 -130 197
l-6 31 87 6 c54 4 113 16 157 31 78 29 97 31 127 15z m1558 -219 c4 -20 18
-53 33 -75 46 -68 30 -124 -33 -110 -17 4 -53 24 -80 46 -38 30 -50 46 -50 67
0 34 23 68 64 93 42 26 60 21 66 -21z m-1403 -137 c70 -92 142 -158 194 -178
54 -20 109 -59 109 -76 0 -6 -9 -19 -20 -31 -25 -27 -36 -83 -20 -103 9 -11
39 -13 168 -8 106 4 161 10 169 19 15 15 46 7 108 -25 21 -12 47 -21 57 -21
11 0 23 -13 32 -33 16 -39 69 -86 99 -89 37 -2 72 3 82 13 13 13 52 11 78 -3
12 -6 47 -32 77 -58 113 -97 141 -96 275 15 37 30 76 55 86 55 26 0 47 -46 65
-142 17 -91 49 -156 89 -182 14 -9 60 -21 101 -25 78 -9 113 -26 140 -66 15
-23 15 -27 -6 -70 -14 -30 -42 -61 -76 -86 -54 -42 -281 -149 -313 -149 -34 0
-53 36 -61 115 -6 63 -13 82 -37 113 -40 49 -77 70 -149 83 -65 12 -120 37
-146 66 -9 10 -28 44 -42 74 -30 69 -89 122 -168 150 -69 26 -79 36 -110 114
-30 75 -60 90 -116 60 -41 -22 -91 -102 -92 -146 0 -14 17 -48 40 -79 57 -76
54 -87 -22 -95 -35 -4 -103 -5 -153 -3 l-90 3 -10 76 c-14 102 -31 126 -92
133 -175 21 -211 42 -300 174 -33 51 -93 128 -132 172 -78 89 -105 132 -97
158 8 23 183 111 223 112 26 0 38 -8 60 -37z m656 -74 c37 -17 52 -56 33 -84
-35 -54 -106 -34 -106 30 0 32 21 65 40 65 5 0 20 -5 33 -11z m540 -25 c3 -3
3 -12 0 -20 -4 -11 -9 -12 -19 -3 -8 6 -11 15 -8 20 6 10 18 12 27 3z m163
-33 c22 -17 67 -40 99 -52 78 -29 104 -46 111 -74 14 -57 -126 -219 -237 -274
-84 -41 -106 -35 -217 66 -143 130 -152 140 -152 161 0 18 12 25 73 42 123 35
227 92 227 123 0 18 21 37 40 37 9 0 34 -13 56 -29z m-878 -123 c-3 -24 -35
-35 -65 -24 -14 6 -14 9 2 26 10 11 29 20 42 20 20 0 24 -4 21 -22z m-3713
-204 c9 -9 30 -44 47 -78 55 -112 98 -141 187 -131 57 6 58 6 90 -30 58 -67
59 -73 12 -169 -45 -93 -69 -116 -117 -116 -39 0 -46 15 -35 77 14 74 -23 140
-107 194 -75 48 -142 37 -244 -37 -55 -41 -56 -46 -27 -142 17 -54 13 -57 -94
-66 -95 -8 -148 -20 -313 -71 -74 -23 -131 -35 -145 -32 -13 4 -48 34 -78 67
-48 55 -55 70 -67 132 -15 81 -33 105 -109 149 -69 40 -134 40 -196 1 -58 -37
-67 -50 -78 -105 -18 -97 -81 -135 -81 -49 0 14 43 111 89 202 25 49 89 81
147 73 46 -6 54 -1 127 86 27 33 28 34 90 27 171 -19 249 -25 322 -26 102 0
131 -9 199 -60 86 -65 159 -67 214 -8 16 18 48 54 72 81 45 50 68 57 95 31z
m3960 -86 c7 -18 16 -50 20 -71 9 -46 37 -69 119 -97 65 -21 108 -57 121 -100
4 -14 32 -60 62 -102 72 -103 83 -133 83 -225 0 -137 -35 -173 -171 -181 -60
-3 -98 1 -175 21 -55 14 -124 28 -154 32 -109 13 -112 14 -105 45 10 43 -12
49 -156 43 -82 -4 -128 -2 -132 4 -7 11 17 16 213 48 52 9 108 24 125 33 59
35 55 130 -6 159 -17 9 -81 13 -185 14 -168 1 -221 6 -207 19 20 19 163 33
348 35 138 1 207 5 223 13 36 21 29 61 -25 132 -93 119 -99 137 -62 184 27 35
47 33 64 -6z m563 -509 c66 -23 99 -138 55 -197 -22 -30 -91 -59 -116 -49 -24
9 -25 218 -1 241 18 19 22 19 62 5z m-4963 -99 c17 -19 17 -29 6 -152 -21
-230 -61 -369 -107 -376 -29 -4 -104 56 -132 105 -13 23 -34 99 -49 178 -35
175 -33 180 82 212 44 12 98 29 120 37 54 19 59 19 80 -4z m4469 -246 c27 -26
4 -54 -45 -54 -46 0 -83 16 -73 31 8 14 63 38 86 39 9 0 24 -7 32 -16z m670 0
c24 -9 2 -41 -34 -49 -64 -14 -117 18 -72 44 19 11 82 14 106 5z m-486 -13
c22 -13 32 -78 32 -204 0 -147 9 -168 82 -195 29 -11 62 -22 73 -24 11 -2 19
-8 18 -14 0 -5 -6 -63 -13 -129 -19 -196 -13 -179 -104 -274 -93 -97 -114
-130 -123 -198 -3 -27 -11 -51 -17 -55 -13 -9 -88 -10 -138 -2 -49 8 -55 29
-28 107 26 75 23 108 -25 224 -37 87 -43 128 -31 203 14 89 35 135 82 181 70
68 90 119 119 309 10 65 39 93 73 71z m-5145 -148 c-4 -127 -27 -177 -69 -142
-23 19 -13 110 20 182 38 83 52 72 49 -40z m5641 71 c51 -19 -31 -86 -83 -68
-35 13 -31 26 19 52 51 25 44 24 64 16z m-684 -44 c28 -18 -2 -45 -49 -45 -52
0 -56 15 -11 37 41 21 40 21 60 8z m340 -20 c8 -5 11 -12 8 -16 -10 -9 -38 3
-38 16 0 12 10 13 30 0z m-5123 -176 c43 -68 50 -84 38 -94 -21 -18 -100 21
-125 62 -20 33 -27 117 -13 154 8 20 20 5 100 -122z m5513 102 c16 -49 -6 -99
-50 -115 -38 -13 -120 -15 -120 -3 0 11 30 37 52 45 15 5 16 11 8 33 -12 30
-12 30 27 55 45 29 70 24 83 -15z m-4843 -122 c23 -36 5 -49 -41 -30 -57 24
-117 132 -88 160 7 8 99 -85 129 -130z m-181 102 c23 -36 15 -70 -18 -74 -40
-5 -68 14 -68 46 0 54 56 72 86 28z m4262 -12 c29 -20 28 -40 -3 -60 -17 -11
-34 -14 -57 -9 -48 11 -90 34 -85 48 11 35 106 49 145 21z m589 -17 c-4 -14
-54 -27 -73 -20 -21 8 -12 26 17 33 31 8 61 1 56 -13z m-187 -7 c0 -15 -28
-19 -39 -6 -6 7 -8 15 -5 18 7 8 44 -2 44 -12z m-5511 -44 c44 -40 103 -77
228 -140 92 -46 210 -110 262 -141 121 -73 141 -80 194 -66 36 9 46 8 67 -8
16 -12 25 -28 25 -46 0 -24 -9 -34 -55 -61 -75 -45 -127 -96 -138 -136 -7 -29
-12 -33 -48 -36 -95 -8 -154 32 -185 125 -19 57 -34 79 -106 154 -90 94 -153
133 -266 168 -88 27 -104 36 -122 71 -25 49 -20 107 14 141 16 16 39 29 50 29
12 0 48 -24 80 -54z m582 -96 c27 -38 35 -98 15 -106 -32 -12 -86 62 -86 116
0 30 47 23 71 -10z m166 15 c21 -8 71 -21 112 -29 40 -9 140 -42 221 -75 81
-33 195 -73 254 -90 59 -17 121 -38 137 -47 28 -14 32 -13 56 6 45 35 113 19
126 -30 4 -16 -4 -27 -33 -47 -56 -36 -91 -87 -110 -157 -10 -34 -23 -62 -31
-64 -8 -1 -48 27 -89 63 -75 65 -136 100 -305 174 -189 82 -339 153 -366 171
-29 21 -82 117 -73 131 8 14 60 11 101 -6z m-701 -220 c33 -13 36 -18 30 -42
-4 -16 -11 -105 -15 -198 -9 -189 -17 -218 -59 -213 l-27 3 -6 170 c-3 94 -11
183 -18 198 -32 81 10 118 95 82z m4890 -135 c41 0 45 -3 70 -46 32 -54 42
-125 23 -160 -23 -44 -60 -55 -217 -63 -168 -10 -150 -16 -242 90 -52 59 -72
106 -49 113 8 2 64 22 124 44 133 48 148 51 204 35 24 -7 64 -13 87 -13z
m-3953 -9 c55 -21 38 -74 -36 -111 -26 -13 -56 -20 -78 -18 -29 3 -34 7 -37
31 -4 32 16 59 63 88 34 21 53 23 88 10z m888 -10 c29 -24 20 -45 -30 -75 -35
-20 -81 -15 -81 9 0 19 58 85 75 85 7 0 23 -9 36 -19z m3793 -32 c34 -26 25
-36 -42 -49 -85 -16 -133 17 -80 54 32 23 90 20 122 -5z m-5465 -73 c28 -30
50 -102 58 -192 l6 -72 -74 -4 c-41 -2 -77 -1 -80 4 -5 8 22 207 36 261 9 33
25 34 54 3z m4225 -19 c25 -18 16 -50 -16 -61 -50 -17 -93 44 -45 64 31 12 41
12 61 -3z m-3054 -35 c28 -22 19 -46 -13 -36 -25 7 -57 33 -57 46 0 15 47 8
70 -10z m2892 -29 c41 -37 8 -70 -43 -43 -23 13 -24 24 -3 44 19 20 23 20 46
-1z m1409 -13 c53 -29 -22 -69 -93 -50 -47 13 -54 25 -26 44 26 18 90 21 119
6z m-4341 -40 c47 -25 -12 -66 -123 -86 -94 -16 -156 -18 -177 -4 -19 12 -5
17 70 23 34 3 83 19 130 41 86 41 76 39 100 26z m-908 -20 c30 -11 90 -22 138
-26 100 -6 200 -23 200 -35 0 -16 -50 -22 -207 -21 -178 0 -219 8 -229 48 -7
26 10 54 32 54 8 0 37 -9 66 -20z m1658 0 c0 -50 -481 -113 -526 -68 -33 32
-8 38 169 39 141 0 181 4 222 19 54 20 135 26 135 10z m-606 -66 c23 -22 20
-33 -11 -45 -34 -13 -92 -3 -100 17 -15 39 77 63 111 28z m3367 1 c0 -5 -9
-11 -21 -13 -20 -3 -27 8 -13 22 10 9 34 3 34 -9z m1969 -150 c0 -8 -4 -15
-10 -15 -5 0 -10 7 -10 15 0 8 5 15 10 15 6 0 10 -7 10 -15z m-5615 -134 c3
-5 1 -13 -5 -16 -15 -9 -43 3 -35 15 8 13 32 13 40 1z"/>
<path d="M6865 4604 c-44 -23 -66 -45 -81 -81 -46 -108 37 -139 131 -50 46 44
61 81 51 122 -5 20 -13 25 -39 25 -17 0 -45 -7 -62 -16z"/>
<path d="M2085 2313 c-31 -8 -83 -63 -96 -100 -20 -63 -14 -137 15 -188 50
-85 111 -103 202 -61 98 45 165 131 150 191 -10 37 -80 110 -129 133 -46 21
-111 33 -142 25z"/>
</g>
</svg>
